<?xml version="1.0" encoding="UTF-8"?>
<svg version="1.1" xmlns="http://www.w3.org/2000/svg" width="355" height="308">
<path d="M0 0 C6.3183557 0.85764622 9.03042566 4.24049365 13 9 C24 23.64547927 24 23.64547927 24 27 C24.66 27 25.32 27 26 27 C26 27.66 26 28.32 26 29 C26.66128906 29.2475 27.32257813 29.495 28.00390625 29.75 C40.29929772 34.87975915 51.48760394 41.87648899 62 50 C62.97710937 50.7528125 63.95421875 51.505625 64.9609375 52.28125 C72.51703929 58.29226655 80.60693231 64.89311299 86 73 C86 73.66 86 74.32 86 75 C86.66 75 87.32 75 88 75 C100.75254259 89.52744866 109.49515087 109.13208388 113 128 C113.26055176 129.26336182 113.26055176 129.26336182 113.52636719 130.55224609 C115.19082742 139.28250321 115.39333528 147.89897311 115.375 156.75 C115.37667679 157.89254242 115.37667679 157.89254242 115.37838745 159.0581665 C115.36858803 172.67864641 113.89158163 185.67434652 111 199 C110.66410802 200.66615289 110.33012142 202.33269417 110 204 C115.30370515 196.54614411 117.00906976 189.31184699 118.671875 180.3984375 C120.00169861 173.49813056 121.27350521 167.41285047 126 162 C126.66 161.67 127.32 161.34 128 161 C129.33592477 167.67962383 128.5021081 171.7494507 126 178 C125.56558594 179.14210937 125.13117188 180.28421875 124.68359375 181.4609375 C123.47078418 184.64672218 122.24142796 187.82528107 121 191 C121.45375 190.505 121.9075 190.01 122.375 189.5 C124 188 124 188 126 188 C126 187.34 126 186.68 126 186 C127.64453125 184.30859375 127.64453125 184.30859375 129.8125 182.4375 C130.52019531 181.81746094 131.22789062 181.19742188 131.95703125 180.55859375 C134 179 134 179 137 178 C137 177.34 137 176.68 137 176 C145.0298926 169.81897658 156.66286216 163.79800723 167 165 C163.27238746 171.80694464 158.02137153 175.75911964 150.58203125 178.0546875 C148.16399771 178.68187305 145.74472923 179.30431773 143.32421875 179.921875 C139.31100689 181.22345722 136.59578648 183.06804839 133.453125 185.828125 C132 187 132 187 130 187 C130 187.66 130 188.32 130 189 C129.34 189 128.68 189 128 189 C128 189.66 128 190.32 128 191 C127.34 191 126.68 191 126 191 C125.75378906 191.57492188 125.50757813 192.14984375 125.25390625 192.7421875 C123.80206947 195.35639827 122.09712451 197.06336208 119.9375 199.125 C117.08428067 201.77905 117.08428067 201.77905 115 205 C122.68058904 199.46482689 129.9107963 193.6199084 136.92211914 187.25512695 C137.52531982 186.71718506 138.12852051 186.17924316 138.75 185.625 C139.28109375 185.14289063 139.8121875 184.66078125 140.359375 184.1640625 C142.21492297 182.84750703 143.77879654 182.41526847 146 182 C145.56822033 188.90847465 140.18270921 194.13486193 135.25 198.5 C132.29787234 201 132.29787234 201 130 201 C130 201.66 130 202.32 130 203 C129.10075806 203.38369751 129.10075806 203.38369751 128.18334961 203.77514648 C125.42289326 204.97044778 122.68084128 206.20345213 119.9375 207.4375 C118.52307617 208.03981445 118.52307617 208.03981445 117.08007812 208.65429688 C108.2009902 212.70712098 103.64347769 218.67233182 98.9375 227.0625 C96.30115532 231.57891891 93.57046938 236.14991555 90 240 C89.34 240 88.68 240 88 240 C87.71125 240.598125 87.4225 241.19625 87.125 241.8125 C86 244 86 244 84 247 C83.34 247 82.68 247 82 247 C82 247.66 82 248.32 82 249 C81.34 249 80.68 249 80 249 C80 249.66 80 250.32 80 251 C79.34 251 78.68 251 78 251 C78 251.66 78 252.32 78 253 C77.34 253 76.68 253 76 253 C76 253.66 76 254.32 76 255 C73.99294997 256.70926812 71.9847099 258.30189023 69.875 259.875 C69.30523437 260.30941406 68.73546875 260.74382812 68.1484375 261.19140625 C57.83077609 269 57.83077609 269 55 269 C55 269.66 55 270.32 55 271 C38.75001286 280.22296568 20.74712507 289.45857636 2 292 C0.93265625 292.16435547 0.93265625 292.16435547 -0.15625 292.33203125 C-30.33982079 296.20834599 -62.83101016 289.2824733 -87.2421875 270.59765625 C-89.87896867 268.45035885 -92.44557613 266.24399041 -95 264 C-96.03125 263.21625 -97.0625 262.4325 -98.125 261.625 C-102.62072214 257.52021022 -106.27974542 252.80560126 -110 248 C-110.59941406 247.22785156 -111.19882813 246.45570313 -111.81640625 245.66015625 C-129.93738094 221.06440174 -136.7708687 191.6163746 -133.25 161.4375 C-130.29862718 142.11207249 -123.51065716 124.7994245 -112 109 C-111.49082031 108.24589844 -110.98164062 107.49179688 -110.45703125 106.71484375 C-109.36347641 105.10177019 -108.19159628 103.54206577 -107 102 C-106.34 102 -105.68 102 -105 102 C-104.773125 101.44957031 -104.54625 100.89914063 -104.3125 100.33203125 C-99.55096104 91.87179685 -90.10877677 85.00902277 -82 80 C-81.45311523 79.65227539 -80.90623047 79.30455078 -80.34277344 78.94628906 C-66.23736508 70.06396474 -47.05921273 61.12516858 -30 62 C-29.1772363 84.72410048 -29.1772363 84.72410048 -34 94 C-34.56074219 95.12728516 -34.56074219 95.12728516 -35.1328125 96.27734375 C-35.41898437 96.84582031 -35.70515625 97.41429688 -36 98 C-36.66 98 -37.32 98 -38 98 C-38.36738281 99.09634766 -38.36738281 99.09634766 -38.7421875 100.21484375 C-44.55952668 113.09609479 -62.3967381 122.58101323 -73.6328125 130.35546875 C-80.69959211 135.26489815 -87.56588118 140.28078327 -94 146 C-92.7625 145.27296875 -92.7625 145.27296875 -91.5 144.53125 C-85.2754345 140.90551147 -79.00742574 137.40747512 -72.5625 134.1875 C-71.91700195 133.86370361 -71.27150391 133.53990723 -70.60644531 133.20629883 C-66.54052982 131.19120793 -62.43624968 129.28841721 -58.29296875 127.4375 C-41.88616117 120.02900484 -28.96505162 112.55472594 -21.828125 95.140625 C-20.82223187 92.44366516 -19.89085814 89.73681899 -19 87 C-18.5875 85.783125 -18.175 84.56625 -17.75 83.3125 C-17.37875 82.1678125 -17.37875 82.1678125 -17 81 C-16.34 81 -15.68 81 -15 81 C-11.70102552 87.9972539 -10.31618757 93.90236069 -10.4375 101.625 C-10.44265625 102.57922852 -10.4478125 103.53345703 -10.453125 104.51660156 C-10.64676282 112.11688615 -12.33129019 118.48632638 -14.87109375 125.5859375 C-17.41593744 133.28210837 -16.41781218 139.35588428 -13.2265625 146.6796875 C-12.04371894 148.91729602 -10.73510391 150.81531284 -9.1875 152.8125 C-7 156 -7 156 -6.8125 158.625 C-8.81252991 162.62505982 -11.83644658 165.16054127 -15.953125 166.7578125 C-17.61768165 167.23823332 -19.30796438 167.62775216 -21 168 C-20.67 168.70125 -20.34 169.4025 -20 170.125 C-18.88118207 173.34160154 -18.63242462 175.61830655 -19 179 C-20.9408457 181.81422626 -22.76983566 182.27254563 -26 183 C-25.94199219 183.59167969 -25.88398438 184.18335938 -25.82421875 184.79296875 C-25.68251529 187.27480372 -25.65100746 189.53602858 -26 192 C-26.78375 192.763125 -27.5675 193.52625 -28.375 194.3125 C-31.93305698 197.95527262 -31.92808091 201.11726135 -32.4453125 206.0625 C-33.06217411 209.32926006 -34.05460676 211.31926673 -36 214 C-40.3066686 216.8711124 -43.94296141 216.5691287 -49 216 C-52.57832964 215.00441905 -55.91578361 213.61800538 -59.3125 212.125 C-60.17939453 211.76019531 -61.04628906 211.39539063 -61.93945312 211.01953125 C-65.22063746 209.63665663 -68.48787027 208.22405676 -71.75 206.796875 C-79.47373327 204.06138613 -86.6238999 204.58123814 -94.0390625 207.796875 C-96.29951184 208.99522336 -96.29951184 208.99522336 -98 212 C-98.66 212 -99.32 212 -100 212 C-102.23272891 220.93091563 -100.92986946 226.25739553 -96.66796875 234.28515625 C-94.73615089 237.42944996 -92.74833784 239.57499602 -90 242 C-90 242.66 -90 243.32 -90 244 C-89.43152344 244.26296875 -88.86304688 244.5259375 -88.27734375 244.796875 C-85.83763678 246.08577679 -83.77054995 247.59675518 -81.5625 249.25 C-66.76043383 259.66787648 -50.82160935 263.31879909 -33 262 C-27.42640208 260.96618748 -23.06270163 259.06270163 -19 255 C-16.97248015 252.0069945 -16.38864842 249.58077356 -17 246 C-20.19409391 241.96041065 -23.03995781 240.268848 -28 239 C-28 238.34 -28 237.68 -28 237 C-23.93220306 235.64406769 -20.25331741 235.46924415 -16 236 C-12.0347469 238.05605716 -9.29785307 240.17679147 -7 244 C-5.97972658 250.42218616 -5.65434134 257.09734765 -9.5625 262.5625 C-16.22544814 269.8667178 -23.18739182 272.96365836 -33.09936523 273.52197266 C-33.87094971 273.55597168 -34.64253418 273.5899707 -35.4375 273.625 C-37.933125 273.74875 -40.42875 273.8725 -43 274 C-37.39 274.66 -31.78 275.32 -26 276 C-28 280 -28 280 -30.8203125 281.265625 C-31.91085938 281.59046875 -33.00140625 281.9153125 -34.125 282.25 C-35.22070312 282.58515625 -36.31640625 282.9203125 -37.4453125 283.265625 C-38.28835937 283.50796875 -39.13140625 283.7503125 -40 284 C-16.66201713 288.46050184 6.53146125 287.71214438 26.73828125 274.1640625 C33.92169013 268.77944504 38.02717609 263.87297396 39.52734375 254.81640625 C39.73037109 253.20572266 39.73037109 253.20572266 39.9375 251.5625 C41.01689815 244.20753118 42.67314007 238.4933243 48 233 C48.99 233 49.98 233 51 233 C49.18130658 241.54234789 46.92183803 249.76842586 44 258 C44.33 258.33 44.66 258.66 45 259 C51.79368544 252.04350293 59.77663018 243.55990164 60.08178711 233.23193359 C60.0638208 232.13187988 60.04585449 231.03182617 60.02734375 229.8984375 C60.01509766 228.68542969 60.00285156 227.47242188 59.99023438 226.22265625 C59.95539851 223.68092814 59.91641435 221.13925311 59.87304688 218.59765625 C59.78363841 208.63650152 60.25440742 200.35722557 66 192 C66.99 191.67 67.98 191.34 69 191 C68.90912109 191.69561035 68.81824219 192.3912207 68.72460938 193.10791016 C68.3124728 196.27977661 67.90618496 199.45236613 67.5 202.625 C67.35691406 203.71941406 67.21382812 204.81382812 67.06640625 205.94140625 C66.86337891 207.53662109 66.86337891 207.53662109 66.65625 209.1640625 C66.53056641 210.13811035 66.40488281 211.1121582 66.27539062 212.11572266 C65.99093981 215.09489105 65.95344993 218.00915797 66 221 C70.45066764 209.44122724 73.80751506 199.39885921 70.5 187.125 C68.60898127 180.03592029 67.40216962 172.74593197 71 166 C74 167 74 167 75.125 169.125 C78.95610692 181.71292273 77.17255507 194.88927234 74.65625 207.515625 C73.90745665 210.9004218 73.90745665 210.9004218 74 214 C75.10408203 212.44539063 75.10408203 212.44539063 76.23046875 210.859375 C77.21578142 209.48932119 78.20147891 208.11954406 79.1875 206.75 C79.67025391 206.06808594 80.15300781 205.38617188 80.65039062 204.68359375 C83.40402965 200.87654919 85.97430024 197.55641818 90 195 C91.32 195 92.64 195 94 195 C92.99806563 198.79303725 92.18975773 201.71536341 90 205 C89.34 205 88.68 205 88 205 C88 205.66 88 206.32 88 207 C87.34 207 86.68 207 86 207 C86 207.66 86 208.32 86 209 C82.53846154 212 82.53846154 212 80 212 C80 212.66 80 213.32 80 214 C78.453125 215.175625 78.453125 215.175625 76.875 216.375 C71.79619559 220.60903334 69.71195373 226.09673995 67 232 C65.60343208 234.86428559 64.17715192 237.71335882 62.75 240.5625 C62.408479 241.25327637 62.06695801 241.94405273 61.71508789 242.65576172 C60.27020847 245.56278574 58.80347971 248.29478043 57 251 C61.24128676 247.47477464 65.15913237 243.93863898 68.6875 239.6875 C71.20927936 236.71765961 73.07165955 234.87296454 77 234 C77.99 234 78.98 234 80 234 C79.62212892 239.29019507 77.72106095 242.3718593 74 246 C70.8359375 248.0546875 70.8359375 248.0546875 67.375 249.875 C60.02769193 253.85552019 53.36719386 258.53285505 46.8203125 263.73046875 C45 265 45 265 43 265 C43 265.66 43 266.32 43 267 C41.71484375 268.23681641 41.71484375 268.23681641 39.9375 269.6015625 C39.30585938 270.09140625 38.67421875 270.58125 38.0234375 271.0859375 C37.35570312 271.59382813 36.68796875 272.10171875 36 272.625 C35.33226562 273.140625 34.66453125 273.65625 33.9765625 274.1875 C32.3219811 275.46389136 30.66152632 276.73266232 29 278 C33.1592532 277.06609229 36.7746309 275.28383341 40.5625 273.375 C41.27124268 273.01889648 41.97998535 272.66279297 42.71020508 272.29589844 C49.73748504 268.71027557 56.57019662 264.8239549 62.67578125 259.796875 C65 258 65 258 67 258 C67 257.34 67 256.68 67 256 C68.4609375 254.4921875 68.4609375 254.4921875 70.375 252.875 C71.00148437 252.33617187 71.62796875 251.79734375 72.2734375 251.2421875 C74 250 74 250 76 250 C76 249.34 76 248.68 76 248 C77.875 245.875 77.875 245.875 80 244 C80.66 244 81.32 244 82 244 C82.26296875 243.41605469 82.5259375 242.83210937 82.796875 242.23046875 C84.05536393 239.89736103 85.44750354 238.24896579 87.25 236.3125 C99.00159698 223.07674688 104.07728427 207.93083822 108 191 C108.20367187 190.13503906 108.40734375 189.27007812 108.6171875 188.37890625 C112.70416269 162.98127473 102.02504934 137.45075339 89.9362793 115.81494141 C89 114 89 114 88 111 C86.68747118 110.29325371 85.34721283 109.63815344 84 109 C83.0925 108.195625 82.185 107.39125 81.25 106.5625 C76.98266207 103.39910384 72.07855385 102.82343632 66.95019531 102.07641602 C59.76008472 100.99406191 53.84899444 98.45637672 48 94 C47.67 93.01 47.34 92.02 47 91 C50.6582453 89.67143972 52.81873498 90.35120985 56.421875 91.65234375 C57.44667969 92.01650391 58.47148437 92.38066406 59.52734375 92.75585938 C61.12255859 93.34077148 61.12255859 93.34077148 62.75 93.9375 C63.82894531 94.32357422 64.90789062 94.70964844 66.01953125 95.10742188 C68.68327196 96.0621254 71.34304418 97.02660643 74 98 C74.33 97.67 74.66 97.34 75 97 C68.2788528 89.56720192 59.79076993 81.92808073 50 79 C47.11088773 78.97434932 47.11088773 78.97434932 44.0625 79.375 C30.28297291 80.61360918 16.81241331 80.90302325 4.5390625 73.51953125 C4.03117188 73.01808594 3.52328125 72.51664062 3 72 C3 71.01 3 70.02 3 69 C9.99848946 69.77040151 16.78933211 71.13605925 23.66601562 72.62695312 C28.55828499 73.64726599 33.00238381 74.21021181 38 74 C35.3349556 73.03694987 32.66811249 72.07948284 30 71.125 C28.88431641 70.72087891 28.88431641 70.72087891 27.74609375 70.30859375 C18.32875895 66.95110917 8.99633639 64.15595686 -0.9375 67 C-8.32488067 69.09358966 -15.82643387 68.55060129 -23 66 C-21.55231967 62.2512699 -21.55231967 62.2512699 -19.1796875 61.171875 C-3.04530403 58.21846243 15.09572135 59.54786068 30 67 C30 66.34 30 65.68 30 65 C29.45601562 64.76410156 28.91203125 64.52820313 28.3515625 64.28515625 C25.37532215 62.65860629 22.97130358 60.61741527 20.375 58.4375 C16.88933319 55.41267744 16.88933319 55.41267744 13 53 C13 52.34 13 51.68 13 51 C12.34 51 11.68 51 11 51 C9.4375 48.1875 9.4375 48.1875 8 45 C8.33 44.01 8.66 43.02 9 42 C18.01024343 45.76791998 23.84815263 51.68559468 29.17602539 59.81811523 C35.40220546 69.03232673 43.61769213 71.96023686 53.67724609 75.99462891 C58.47810998 78.07261477 62.74905994 80.96779275 67 84 C67 82.68 67 81.36 67 80 C66.4225 79.73832031 65.845 79.47664063 65.25 79.20703125 C59.77873216 76.27192402 54.27926057 71.24681691 51 66 C50.25 62.1875 50.25 62.1875 50 59 C55.43847218 59 56.99180059 61.20434704 60.82421875 64.8046875 C66.56885204 70.60088841 68.95236937 76.2880916 71.73046875 83.9609375 C73.30535719 87.73097813 75.21742849 90.0584244 78 93 C78 93.66 78 94.32 78 95 C78.66 95 79.32 95 80 95 C81.80156101 97.02296498 83.47219474 99.0473255 85.125 101.1875 C85.61347412 101.81446777 86.10194824 102.44143555 86.60522461 103.08740234 C92.09711135 110.25479518 97.08075743 117.84953536 101 126 C101.55749768 123.15056743 101.740328 121.76519861 101 119 C98.89472881 116.26102092 96.61366052 113.86373252 94.1640625 111.4296875 C91.96504272 108.96075193 90.90434074 107.16005431 90 104 C90.375 100.6875 90.375 100.6875 91 98 C92.32 98 93.64 98 95 98 C98.42362127 101.53060943 100.64922997 105.7182403 103 110 C99.00725727 99.97460965 99.00725727 99.97460965 93.34375 90.88671875 C92 89 92 89 92 86 C91.34 86 90.68 86 90 86 C88.6953125 84.26953125 88.6953125 84.26953125 87.125 81.8125 C80.44088819 72.01562094 72.3271269 63.5090696 62.765625 56.48828125 C62.18296875 55.99714844 61.6003125 55.50601563 61 55 C61 54.34 61 53.68 61 53 C60.28585938 52.73960938 59.57171875 52.47921875 58.8359375 52.2109375 C55.85474264 50.93797551 53.33346842 49.40218988 50.625 47.625 C48.75831778 46.4038563 46.88272455 45.19626198 45 44 C43.95070312 43.27683594 42.90140625 42.55367187 41.8203125 41.80859375 C37.1904583 39.19616852 32.44511418 39.45340882 27.25 39.4375 C15.66989611 39.14447733 2.12194241 37.9891323 -6.67578125 29.35546875 C-10.47569326 27.13938561 -14.4441736 27.68847694 -18.75 27.8125 C-19.63816406 27.82603516 -20.52632813 27.83957031 -21.44140625 27.85351562 C-23.62822578 27.88878691 -25.81379966 27.93807248 -28 28 C-28.30091553 28.62398682 -28.60183105 29.24797363 -28.91186523 29.89086914 C-32.47720106 36.80155709 -39.23824541 40.71503412 -46 44 C-46.64453125 44.33257812 -47.2890625 44.66515625 -47.953125 45.0078125 C-51.67372441 46.80340613 -54.04763673 47.31745442 -58 46 C-57.01 44.02 -56.02 42.04 -55 40 C-54.34 40 -53.68 40 -53 40 C-53 39.34 -53 38.68 -53 38 C-47.77606518 35.19455352 -42.83784218 33.22048479 -37.1015625 31.7109375 C-34.81491435 31.11039776 -34.81491435 31.11039776 -33 29 C-37.60129694 28.86416873 -37.60129694 28.86416873 -42.13671875 29.4921875 C-44.67595919 29.94253028 -46.90883346 30.07729824 -49.4765625 30.10546875 C-59.8622185 30.23847608 -67.26966436 30.87991674 -76 37 C-83.8280992 41.62218357 -90.71723485 45.58017282 -100 45 C-99.15753865 41.20892393 -98.18336883 40.11735605 -94.875 38 C-88.20260165 34.97385651 -81.01142775 33.07619948 -74 31 C-74 30.67 -74 30.34 -74 30 C-74.62342285 29.93530518 -75.2468457 29.87061035 -75.88916016 29.80395508 C-108.73232603 26.2787765 -108.73232603 26.2787765 -121 15 C-121.33 14.01 -121.66 13.02 -122 12 C-111.98790506 11.35405839 -104.61111472 14.11971176 -96.984375 20.6328125 C-91.68654198 24.2828943 -85.4686254 24.5554262 -79.25 25.125 C-78.40695313 25.21136719 -77.56390625 25.29773438 -76.6953125 25.38671875 C-70.78239276 25.95631194 -64.93805414 26.09997258 -59 26 C-66.82990999 23.68584177 -74.6265763 22.08112057 -82.6875 20.8125 C-83.78255859 20.63525391 -84.87761719 20.45800781 -86.00585938 20.27539062 C-88.66977223 19.84497676 -91.33441895 19.41993568 -94 19 C-94.495 17.02 -94.495 17.02 -95 15 C-80.50532703 14.22530869 -68.51570218 14.34921075 -55.90625 22.32421875 C-47.73571772 27.43080142 -36.01375178 24.63498652 -27 23 C-29.31 22.01 -31.62 21.02 -34 20 C-32 17 -32 17 -29.93359375 16.48828125 C-16.87086662 15.56837089 -5.19325542 15.68732838 7.125 20.5625 C7.98609375 20.89185547 8.8471875 21.22121094 9.734375 21.56054688 C11.82739198 22.36287005 13.91544423 23.17600021 16 24 C16.33 23.67 16.66 23.34 17 23 C16.33613281 22.33613281 15.67226562 21.67226563 14.98828125 20.98828125 C12.32552083 18.32552083 9.66276042 15.66276042 7 13 C5.63875 11.66195313 5.63875 11.66195313 4.25 10.296875 C0.75975667 6.73391826 0 5.02435567 0 0 Z M-9 22 C-8.67 22.66 -8.34 23.32 -8 24 C-5.45058627 24.31241371 -2.99638487 24.51303421 -0.4375 24.625 C0.62887695 24.68300781 0.62887695 24.68300781 1.71679688 24.7421875 C3.47742425 24.83671783 5.23867728 24.91945817 7 25 C6.38125 24.690625 5.7625 24.38125 5.125 24.0625 C3.75 23.375 2.375 22.6875 1 22 C-0.70702735 21.93003986 -2.41668003 21.91559846 -4.125 21.9375 C-5.03507813 21.94652344 -5.94515625 21.95554687 -6.8828125 21.96484375 C-7.93082031 21.98224609 -7.93082031 21.98224609 -9 22 Z M9 30 C12.2645028 33.2645028 16.41047299 33.93236055 20.9375 34.125 C21.618125 34.08375 22.29875 34.0425 23 34 C19.7354972 30.7354972 15.58952701 30.06763945 11.0625 29.875 C10.0415625 29.936875 10.0415625 29.936875 9 30 Z M105 115 C105.02320313 115.6290625 105.04640625 116.258125 105.0703125 116.90625 C105.16275879 121.29084544 105.1548714 124.55751029 103.6875 128.75 C102.17784987 133.97087338 104.70033356 138.39510439 106.6171875 143.234375 C108.83300404 148.96836557 109.87301225 154.97107367 111 161 C111.33 161 111.66 161 112 161 C112.38234807 145.02634742 110.91887679 130.2819473 106 115 C105.67 115 105.34 115 105 115 Z " fill="#E19B9E" transform="translate(183,2)"/>
<path d="M0 0 C6.3183557 0.85764622 9.03042566 4.24049365 13 9 C24 23.64547927 24 23.64547927 24 27 C24.66 27 25.32 27 26 27 C26 27.66 26 28.32 26 29 C26.66128906 29.2475 27.32257813 29.495 28.00390625 29.75 C40.29929772 34.87975915 51.48760394 41.87648899 62 50 C62.97710937 50.7528125 63.95421875 51.505625 64.9609375 52.28125 C72.51703929 58.29226655 80.60693231 64.89311299 86 73 C86 73.66 86 74.32 86 75 C86.66 75 87.32 75 88 75 C100.75254259 89.52744866 109.49515087 109.13208388 113 128 C113.26055176 129.26336182 113.26055176 129.26336182 113.52636719 130.55224609 C115.19082742 139.28250321 115.39333528 147.89897311 115.375 156.75 C115.37667679 157.89254242 115.37667679 157.89254242 115.37838745 159.0581665 C115.36858803 172.67864641 113.89158163 185.67434652 111 199 C110.66410802 200.66615289 110.33012142 202.33269417 110 204 C115.30370515 196.54614411 117.00906976 189.31184699 118.671875 180.3984375 C120.00169861 173.49813056 121.27350521 167.41285047 126 162 C126.66 161.67 127.32 161.34 128 161 C129.33592477 167.67962383 128.5021081 171.7494507 126 178 C125.56558594 179.14210937 125.13117188 180.28421875 124.68359375 181.4609375 C123.47078418 184.64672218 122.24142796 187.82528107 121 191 C121.45375 190.505 121.9075 190.01 122.375 189.5 C124 188 124 188 126 188 C126 187.34 126 186.68 126 186 C127.64453125 184.30859375 127.64453125 184.30859375 129.8125 182.4375 C130.52019531 181.81746094 131.22789062 181.19742188 131.95703125 180.55859375 C134 179 134 179 137 178 C137 177.34 137 176.68 137 176 C145.0298926 169.81897658 156.66286216 163.79800723 167 165 C163.27238746 171.80694464 158.02137153 175.75911964 150.58203125 178.0546875 C148.16399771 178.68187305 145.74472923 179.30431773 143.32421875 179.921875 C139.31100689 181.22345722 136.59578648 183.06804839 133.453125 185.828125 C132 187 132 187 130 187 C130 187.66 130 188.32 130 189 C129.34 189 128.68 189 128 189 C128 189.66 128 190.32 128 191 C127.34 191 126.68 191 126 191 C125.75378906 191.57492188 125.50757813 192.14984375 125.25390625 192.7421875 C123.80206947 195.35639827 122.09712451 197.06336208 119.9375 199.125 C117.08428067 201.77905 117.08428067 201.77905 115 205 C122.68058904 199.46482689 129.9107963 193.6199084 136.92211914 187.25512695 C137.52531982 186.71718506 138.12852051 186.17924316 138.75 185.625 C139.28109375 185.14289063 139.8121875 184.66078125 140.359375 184.1640625 C142.21492297 182.84750703 143.77879654 182.41526847 146 182 C145.56822033 188.90847465 140.18270921 194.13486193 135.25 198.5 C132.29787234 201 132.29787234 201 130 201 C130 201.66 130 202.32 130 203 C129.10075806 203.38369751 129.10075806 203.38369751 128.18334961 203.77514648 C125.42289326 204.97044778 122.68084128 206.20345213 119.9375 207.4375 C118.52307617 208.03981445 118.52307617 208.03981445 117.08007812 208.65429688 C108.2009902 212.70712098 103.64347769 218.67233182 98.9375 227.0625 C96.30115532 231.57891891 93.57046938 236.14991555 90 240 C89.34 240 88.68 240 88 240 C87.71125 240.598125 87.4225 241.19625 87.125 241.8125 C86 244 86 244 84 247 C83.34 247 82.68 247 82 247 C82 247.66 82 248.32 82 249 C81.34 249 80.68 249 80 249 C80 249.66 80 250.32 80 251 C79.34 251 78.68 251 78 251 C78 251.66 78 252.32 78 253 C77.34 253 76.68 253 76 253 C76 253.66 76 254.32 76 255 C73.99294997 256.70926812 71.9847099 258.30189023 69.875 259.875 C69.30523437 260.30941406 68.73546875 260.74382812 68.1484375 261.19140625 C57.83077609 269 57.83077609 269 55 269 C55 269.66 55 270.32 55 271 C38.75001286 280.22296568 20.74712507 289.45857636 2 292 C1.2884375 292.10957031 0.576875 292.21914063 -0.15625 292.33203125 C-25.89099021 295.63700645 -52.59571514 291.2819256 -75 278 C-75 277.67 -75 277.34 -75 277 C-73.741875 277.12375 -72.48375 277.2475 -71.1875 277.375 C-70.47980469 277.44460938 -69.77210937 277.51421875 -69.04296875 277.5859375 C-67 278 -67 278 -64 280 C-61.65289664 280.54390196 -61.65289664 280.54390196 -58.875 280.875 C-54.34625066 281.49965508 -49.85322077 282.19473115 -45.35546875 283.015625 C-19.84560661 287.58067499 4.31251435 289.19988339 26.73828125 274.1640625 C33.92169013 268.77944504 38.02717609 263.87297396 39.52734375 254.81640625 C39.73037109 253.20572266 39.73037109 253.20572266 39.9375 251.5625 C41.01689815 244.20753118 42.67314007 238.4933243 48 233 C48.99 233 49.98 233 51 233 C49.18130658 241.54234789 46.92183803 249.76842586 44 258 C44.33 258.33 44.66 258.66 45 259 C51.79368544 252.04350293 59.77663018 243.55990164 60.08178711 233.23193359 C60.0638208 232.13187988 60.04585449 231.03182617 60.02734375 229.8984375 C60.01509766 228.68542969 60.00285156 227.47242188 59.99023438 226.22265625 C59.95539851 223.68092814 59.91641435 221.13925311 59.87304688 218.59765625 C59.78363841 208.63650152 60.25440742 200.35722557 66 192 C66.99 191.67 67.98 191.34 69 191 C68.90912109 191.69561035 68.81824219 192.3912207 68.72460938 193.10791016 C68.3124728 196.27977661 67.90618496 199.45236613 67.5 202.625 C67.35691406 203.71941406 67.21382812 204.81382812 67.06640625 205.94140625 C66.86337891 207.53662109 66.86337891 207.53662109 66.65625 209.1640625 C66.53056641 210.13811035 66.40488281 211.1121582 66.27539062 212.11572266 C65.99093981 215.09489105 65.95344993 218.00915797 66 221 C70.45066764 209.44122724 73.80751506 199.39885921 70.5 187.125 C68.60898127 180.03592029 67.40216962 172.74593197 71 166 C74 167 74 167 75.125 169.125 C78.95610692 181.71292273 77.17255507 194.88927234 74.65625 207.515625 C73.90745665 210.9004218 73.90745665 210.9004218 74 214 C75.10408203 212.44539063 75.10408203 212.44539063 76.23046875 210.859375 C77.21578142 209.48932119 78.20147891 208.11954406 79.1875 206.75 C79.67025391 206.06808594 80.15300781 205.38617188 80.65039062 204.68359375 C83.40402965 200.87654919 85.97430024 197.55641818 90 195 C91.32 195 92.64 195 94 195 C92.99806563 198.79303725 92.18975773 201.71536341 90 205 C89.34 205 88.68 205 88 205 C88 205.66 88 206.32 88 207 C87.34 207 86.68 207 86 207 C86 207.66 86 208.32 86 209 C82.53846154 212 82.53846154 212 80 212 C80 212.66 80 213.32 80 214 C78.453125 215.175625 78.453125 215.175625 76.875 216.375 C71.79619559 220.60903334 69.71195373 226.09673995 67 232 C65.60343208 234.86428559 64.17715192 237.71335882 62.75 240.5625 C62.408479 241.25327637 62.06695801 241.94405273 61.71508789 242.65576172 C60.27020847 245.56278574 58.80347971 248.29478043 57 251 C61.24128676 247.47477464 65.15913237 243.93863898 68.6875 239.6875 C71.20927936 236.71765961 73.07165955 234.87296454 77 234 C77.99 234 78.98 234 80 234 C79.62212892 239.29019507 77.72106095 242.3718593 74 246 C70.8359375 248.0546875 70.8359375 248.0546875 67.375 249.875 C60.02769193 253.85552019 53.36719386 258.53285505 46.8203125 263.73046875 C45 265 45 265 43 265 C43 265.66 43 266.32 43 267 C41.71484375 268.23681641 41.71484375 268.23681641 39.9375 269.6015625 C39.30585938 270.09140625 38.67421875 270.58125 38.0234375 271.0859375 C37.35570312 271.59382813 36.68796875 272.10171875 36 272.625 C35.33226562 273.140625 34.66453125 273.65625 33.9765625 274.1875 C32.3219811 275.46389136 30.66152632 276.73266232 29 278 C33.1592532 277.06609229 36.7746309 275.28383341 40.5625 273.375 C41.27124268 273.01889648 41.97998535 272.66279297 42.71020508 272.29589844 C49.73748504 268.71027557 56.57019662 264.8239549 62.67578125 259.796875 C65 258 65 258 67 258 C67 257.34 67 256.68 67 256 C68.4609375 254.4921875 68.4609375 254.4921875 70.375 252.875 C71.00148437 252.33617187 71.62796875 251.79734375 72.2734375 251.2421875 C74 250 74 250 76 250 C76 249.34 76 248.68 76 248 C77.875 245.875 77.875 245.875 80 244 C80.66 244 81.32 244 82 244 C82.26296875 243.41605469 82.5259375 242.83210937 82.796875 242.23046875 C84.05536393 239.89736103 85.44750354 238.24896579 87.25 236.3125 C99.00159698 223.07674688 104.07728427 207.93083822 108 191 C108.20367187 190.13503906 108.40734375 189.27007812 108.6171875 188.37890625 C112.70416269 162.98127473 102.02504934 137.45075339 89.9362793 115.81494141 C89 114 89 114 88 111 C86.68747118 110.29325371 85.34721283 109.63815344 84 109 C83.0925 108.195625 82.185 107.39125 81.25 106.5625 C76.98266207 103.39910384 72.07855385 102.82343632 66.95019531 102.07641602 C59.76008472 100.99406191 53.84899444 98.45637672 48 94 C47.67 93.01 47.34 92.02 47 91 C50.6582453 89.67143972 52.81873498 90.35120985 56.421875 91.65234375 C57.44667969 92.01650391 58.47148437 92.38066406 59.52734375 92.75585938 C61.12255859 93.34077148 61.12255859 93.34077148 62.75 93.9375 C63.82894531 94.32357422 64.90789062 94.70964844 66.01953125 95.10742188 C68.68327196 96.0621254 71.34304418 97.02660643 74 98 C74.33 97.67 74.66 97.34 75 97 C68.2788528 89.56720192 59.79076993 81.92808073 50 79 C47.11088773 78.97434932 47.11088773 78.97434932 44.0625 79.375 C30.28297291 80.61360918 16.81241331 80.90302325 4.5390625 73.51953125 C4.03117187 73.01808594 3.52328125 72.51664062 3 72 C3 71.01 3 70.02 3 69 C9.99848946 69.77040151 16.78933211 71.13605925 23.66601562 72.62695312 C28.55828499 73.64726599 33.00238381 74.21021181 38 74 C35.3349556 73.03694987 32.66811249 72.07948284 30 71.125 C28.88431641 70.72087891 28.88431641 70.72087891 27.74609375 70.30859375 C18.32875895 66.95110917 8.99633639 64.15595686 -0.9375 67 C-8.32488067 69.09358966 -15.82643387 68.55060129 -23 66 C-21.55231967 62.2512699 -21.55231967 62.2512699 -19.1796875 61.171875 C-3.04530403 58.21846243 15.09572135 59.54786068 30 67 C30 66.34 30 65.68 30 65 C29.45601562 64.76410156 28.91203125 64.52820313 28.3515625 64.28515625 C25.37532215 62.65860629 22.97130358 60.61741527 20.375 58.4375 C16.88933319 55.41267744 16.88933319 55.41267744 13 53 C13 52.34 13 51.68 13 51 C12.34 51 11.68 51 11 51 C9.4375 48.1875 9.4375 48.1875 8 45 C8.33 44.01 8.66 43.02 9 42 C18.01024343 45.76791998 23.84815263 51.68559468 29.17602539 59.81811523 C35.40220546 69.03232673 43.61769213 71.96023686 53.67724609 75.99462891 C58.47810998 78.07261477 62.74905994 80.96779275 67 84 C67 82.68 67 81.36 67 80 C66.4225 79.73832031 65.845 79.47664063 65.25 79.20703125 C59.77873216 76.27192402 54.27926057 71.24681691 51 66 C50.25 62.1875 50.25 62.1875 50 59 C55.43847218 59 56.99180059 61.20434704 60.82421875 64.8046875 C66.56885204 70.60088841 68.95236937 76.2880916 71.73046875 83.9609375 C73.30535719 87.73097813 75.21742849 90.0584244 78 93 C78 93.66 78 94.32 78 95 C78.66 95 79.32 95 80 95 C81.80156101 97.02296498 83.47219474 99.0473255 85.125 101.1875 C85.61347412 101.81446777 86.10194824 102.44143555 86.60522461 103.08740234 C92.09711135 110.25479518 97.08075743 117.84953536 101 126 C101.55749768 123.15056743 101.740328 121.76519861 101 119 C98.89472881 116.26102092 96.61366052 113.86373252 94.1640625 111.4296875 C91.96504272 108.96075193 90.90434074 107.16005431 90 104 C90.375 100.6875 90.375 100.6875 91 98 C92.32 98 93.64 98 95 98 C98.42362127 101.53060943 100.64922997 105.7182403 103 110 C99.00725727 99.97460965 99.00725727 99.97460965 93.34375 90.88671875 C92 89 92 89 92 86 C91.34 86 90.68 86 90 86 C88.6953125 84.26953125 88.6953125 84.26953125 87.125 81.8125 C80.44088819 72.01562094 72.3271269 63.5090696 62.765625 56.48828125 C62.18296875 55.99714844 61.6003125 55.50601563 61 55 C61 54.34 61 53.68 61 53 C60.28585938 52.73960938 59.57171875 52.47921875 58.8359375 52.2109375 C55.85474264 50.93797551 53.33346842 49.40218988 50.625 47.625 C48.75831778 46.4038563 46.88272455 45.19626198 45 44 C43.95070312 43.27683594 42.90140625 42.55367187 41.8203125 41.80859375 C37.1904583 39.19616852 32.44511418 39.45340882 27.25 39.4375 C15.66989611 39.14447733 2.12194241 37.9891323 -6.67578125 29.35546875 C-10.47569326 27.13938561 -14.4441736 27.68847694 -18.75 27.8125 C-19.63816406 27.82603516 -20.52632813 27.83957031 -21.44140625 27.85351562 C-23.62822578 27.88878691 -25.81379966 27.93807248 -28 28 C-28.30091553 28.62398682 -28.60183105 29.24797363 -28.91186523 29.89086914 C-32.47720106 36.80155709 -39.23824541 40.71503412 -46 44 C-46.64453125 44.33257812 -47.2890625 44.66515625 -47.953125 45.0078125 C-51.67372441 46.80340613 -54.04763673 47.31745442 -58 46 C-57.01 44.02 -56.02 42.04 -55 40 C-54.34 40 -53.68 40 -53 40 C-53 39.34 -53 38.68 -53 38 C-47.77606518 35.19455352 -42.83784218 33.22048479 -37.1015625 31.7109375 C-34.81491435 31.11039776 -34.81491435 31.11039776 -33 29 C-37.60129694 28.86416873 -37.60129694 28.86416873 -42.13671875 29.4921875 C-44.67595919 29.94253028 -46.90883346 30.07729824 -49.4765625 30.10546875 C-59.8622185 30.23847608 -67.26966436 30.87991674 -76 37 C-83.8280992 41.62218357 -90.71723485 45.58017282 -100 45 C-99.15753865 41.20892393 -98.18336883 40.11735605 -94.875 38 C-88.20260165 34.97385651 -81.01142775 33.07619948 -74 31 C-74 30.67 -74 30.34 -74 30 C-74.62342285 29.93530518 -75.2468457 29.87061035 -75.88916016 29.80395508 C-108.73232603 26.2787765 -108.73232603 26.2787765 -121 15 C-121.33 14.01 -121.66 13.02 -122 12 C-111.98790506 11.35405839 -104.61111472 14.11971176 -96.984375 20.6328125 C-91.68654198 24.2828943 -85.4686254 24.5554262 -79.25 25.125 C-78.40695313 25.21136719 -77.56390625 25.29773438 -76.6953125 25.38671875 C-70.78239276 25.95631194 -64.93805414 26.09997258 -59 26 C-66.82990999 23.68584177 -74.6265763 22.08112057 -82.6875 20.8125 C-83.78255859 20.63525391 -84.87761719 20.45800781 -86.00585938 20.27539062 C-88.66977223 19.84497676 -91.33441895 19.41993568 -94 19 C-94.33 17.68 -94.66 16.36 -95 15 C-80.50532703 14.22530869 -68.51570218 14.34921075 -55.90625 22.32421875 C-47.73571772 27.43080142 -36.01375178 24.63498652 -27 23 C-29.31 22.01 -31.62 21.02 -34 20 C-32 17 -32 17 -29.93359375 16.48828125 C-16.87086662 15.56837089 -5.19325542 15.68732838 7.125 20.5625 C7.98609375 20.89185547 8.8471875 21.22121094 9.734375 21.56054688 C11.82739198 22.36287005 13.91544423 23.17600021 16 24 C16.33 23.67 16.66 23.34 17 23 C16.33613281 22.33613281 15.67226562 21.67226563 14.98828125 20.98828125 C12.32552083 18.32552083 9.66276042 15.66276042 7 13 C5.63875 11.66195313 5.63875 11.66195313 4.25 10.296875 C0.75975667 6.73391826 0 5.02435567 0 0 Z M-9 22 C-8.67 22.66 -8.34 23.32 -8 24 C-5.45058627 24.31241371 -2.99638487 24.51303421 -0.4375 24.625 C0.62887695 24.68300781 0.62887695 24.68300781 1.71679688 24.7421875 C3.47742425 24.83671783 5.23867728 24.91945817 7 25 C6.38125 24.690625 5.7625 24.38125 5.125 24.0625 C3.75 23.375 2.375 22.6875 1 22 C-0.70702735 21.93003986 -2.41668003 21.91559846 -4.125 21.9375 C-5.03507812 21.94652344 -5.94515625 21.95554687 -6.8828125 21.96484375 C-7.93082031 21.98224609 -7.93082031 21.98224609 -9 22 Z M9 30 C12.2645028 33.2645028 16.41047299 33.93236055 20.9375 34.125 C21.618125 34.08375 22.29875 34.0425 23 34 C19.7354972 30.7354972 15.58952701 30.06763945 11.0625 29.875 C10.0415625 29.936875 10.0415625 29.936875 9 30 Z M105 115 C105.02320313 115.6290625 105.04640625 116.258125 105.0703125 116.90625 C105.16275879 121.29084544 105.1548714 124.55751029 103.6875 128.75 C102.17784987 133.97087338 104.70033356 138.39510439 106.6171875 143.234375 C108.83300404 148.96836557 109.87301225 154.97107367 111 161 C111.33 161 111.66 161 112 161 C112.38234807 145.02634742 110.91887679 130.2819473 106 115 C105.67 115 105.34 115 105 115 Z " fill="#B4ADAF" transform="translate(183,2)"/>
<path d="M0 0 C18.16337504 8.18349864 38.89344657 22.30457193 50 39 C50 39.66 50 40.32 50 41 C50.66 41 51.32 41 52 41 C54.11014225 43.40383304 55.79673157 46.14962052 57.5625 48.8125 C58.09536621 49.61405518 58.62823242 50.41561035 59.17724609 51.24145508 C66.10109204 61.92150299 75 75.91763692 75 89 C74.34 89 73.68 89 73 89 C72.505 90.485 72.505 90.485 72 92 C71.5978125 90.43765625 71.5978125 90.43765625 71.1875 88.84375 C68.18146889 77.67417851 64.41058677 66.02405771 57.2578125 56.73828125 C56 55 56 55 56 52 C55.34 52 54.68 52 54 52 C52.6953125 50.26953125 52.6953125 50.26953125 51.125 47.8125 C44.44088819 38.01562094 36.3271269 29.5090696 26.765625 22.48828125 C26.18296875 21.99714844 25.6003125 21.50601563 25 21 C25 20.34 25 19.68 25 19 C24.28585938 18.73960938 23.57171875 18.47921875 22.8359375 18.2109375 C19.85474264 16.93797551 17.33346842 15.40218988 14.625 13.625 C12.75831778 12.4038563 10.88272455 11.19626198 9 10 C7.96488281 9.28070313 6.92976563 8.56140625 5.86328125 7.8203125 C1.06704175 5.10979401 -4.05335857 5.32706644 -9.4375 5.25 C-10.45521484 5.22035156 -11.47292969 5.19070312 -12.52148438 5.16015625 C-15.01440028 5.08993327 -17.50640699 5.03700355 -20 5 C-20 4.67 -20 4.34 -20 4 C-18.72382813 3.96261719 -17.44765625 3.92523438 -16.1328125 3.88671875 C-14.46351162 3.82107209 -12.79424211 3.7546243 -11.125 3.6875 C-9.86236328 3.65366211 -9.86236328 3.65366211 -8.57421875 3.61914062 C-7.76855469 3.58369141 -6.96289062 3.54824219 -6.1328125 3.51171875 C-5.38918457 3.48553467 -4.64555664 3.45935059 -3.87939453 3.43237305 C-1.59266174 3.13270409 -1.59266174 3.13270409 0 0 Z " fill="#BCB8B9" transform="translate(219,36)"/>
<path d="M0 0 C1.32 1.65 2.64 3.3 4 5 C0.0795129 11.36105523 -4.01391158 17.57683827 -8.3125 23.6875 C-8.74481934 24.31156738 -9.17713867 24.93563477 -9.62255859 25.57861328 C-10.69699842 27.09027104 -11.84273292 28.55077158 -13 30 C-13.66 30 -14.32 30 -15 30 C-15.28875 30.598125 -15.5775 31.19625 -15.875 31.8125 C-17 34 -17 34 -19 37 C-19.66 37 -20.32 37 -21 37 C-21 37.66 -21 38.32 -21 39 C-21.66 39 -22.32 39 -23 39 C-23 39.66 -23 40.32 -23 41 C-23.66 41 -24.32 41 -25 41 C-25 41.66 -25 42.32 -25 43 C-25.66 43 -26.32 43 -27 43 C-27 43.66 -27 44.32 -27 45 C-29.00705003 46.70926812 -31.0152901 48.30189023 -33.125 49.875 C-33.69476563 50.30941406 -34.26453125 50.74382812 -34.8515625 51.19140625 C-45.16922391 59 -45.16922391 59 -48 59 C-48 59.66 -48 60.32 -48 61 C-54.1806926 64.50796066 -60.45070803 67.77733285 -66.875 70.8125 C-67.5047876 71.11422119 -68.1345752 71.41594238 -68.78344727 71.72680664 C-72.16572677 73.30424308 -75.30179418 74.45862767 -79 75 C-79 74.01 -79 73.02 -79 72 C-79.66 71.67 -80.32 71.34 -81 71 C-80.38616455 70.83709473 -79.7723291 70.67418945 -79.13989258 70.50634766 C-72.90509679 68.75796262 -67.37697093 66.4474808 -61.6875 63.375 C-60.87152344 62.94131104 -60.05554688 62.50762207 -59.21484375 62.06079102 C-52.98045203 58.68321618 -47.18274276 54.90461422 -41.46875 50.71484375 C-39 49 -39 49 -36 48 C-36 47.34 -36 46.68 -36 46 C-34.5390625 44.4921875 -34.5390625 44.4921875 -32.625 42.875 C-31.99851563 42.33617187 -31.37203125 41.79734375 -30.7265625 41.2421875 C-29 40 -29 40 -27 40 C-27 39.34 -27 38.68 -27 38 C-25.125 35.875 -25.125 35.875 -23 34 C-22.34 34 -21.68 34 -21 34 C-20.73703125 33.41605469 -20.4740625 32.83210938 -20.203125 32.23046875 C-18.94463607 29.89736103 -17.55249646 28.24896579 -15.75 26.3125 C-8.67483255 18.34378138 -4.24749599 9.74514151 0 0 Z " fill="#B6B2B3" transform="translate(286,212)"/>
<path d="M0 0 C3.9652531 2.05605716 6.70214693 4.17679147 9 8 C10.02027342 14.42218616 10.34565866 21.09734765 6.4375 26.5625 C1.42160961 32.06114041 -3.61592022 35.4958356 -11 37 C-13.9375 37.125 -13.9375 37.125 -16 37 C-16.33 36.34 -16.66 35.68 -17 35 C-14.36 35 -11.72 35 -9 35 C-9.495 33.515 -9.495 33.515 -10 32 C-8.68 31.67 -7.36 31.34 -6 31 C-6 30.34 -6 29.68 -6 29 C-5.34 29 -4.68 29 -4 29 C-4.33 28.01 -4.66 27.02 -5 26 C-4.67 25.67 -4.34 25.34 -4 25 C-5.98 25 -7.96 25 -10 25 C-9.2575 24.46375 -8.515 23.9275 -7.75 23.375 C-4.11593 20.236485 -1.48426831 17.20611117 -0.4375 12.4375 C-1.28300871 8.77362893 -3.10768476 7.32642747 -6 5 C-9.16701423 3.66436389 -9.16701423 3.66436389 -12 3 C-12 2.34 -12 1.68 -12 1 C-7.93220306 -0.35593231 -4.25331741 -0.53075585 0 0 Z " fill="#E1A3A5" transform="translate(167,238)"/>
<path d="M0 0 C6.3183557 0.85764622 9.03042566 4.24049365 13 9 C24 23.64547927 24 23.64547927 24 27 C24.66 27 25.32 27 26 27 C26 27.66 26 28.32 26 29 C27.32 29.66 28.64 30.32 30 31 C29.34 31 28.68 31 28 31 C28 31.66 28 32.32 28 33 C26.55245745 34.44754255 24.96037087 34.55733561 23 35 C23 34.34 23 33.68 23 33 C22.34 32.67 21.68 32.34 21 32 C20.66666667 30 20.33333333 28 20 26 C19.34 25.67 18.68 25.34 18 25 C17.07616346 23.96175646 16.18445614 22.89468118 15.3125 21.8125 C13.15808531 19.2366839 10.96114133 17.01621379 8.375 14.875 C4.16046078 11.34112751 1.34806862 8.76934881 0.25 3.1875 C0.1675 2.135625 0.085 1.08375 0 0 Z " fill="#B9B4B6" transform="translate(183,2)"/>
<path d="M0 0 C16.51139034 7.43919785 31.59864224 18.83678408 44 32 C43.01 32.495 43.01 32.495 42 33 C41.505 33.99 41.505 33.99 41 35 C40.43152344 34.40832031 39.86304688 33.81664062 39.27734375 33.20703125 C33.94288913 27.74530827 33.94288913 27.74530827 27.9375 23.0625 C26.968125 22.381875 25.99875 21.70125 25 21 C25 20.34 25 19.68 25 19 C24.28585938 18.73960938 23.57171875 18.47921875 22.8359375 18.2109375 C19.85474264 16.93797551 17.33346842 15.40218988 14.625 13.625 C12.75831778 12.4038563 10.88272455 11.19626198 9 10 C7.96488281 9.28070313 6.92976563 8.56140625 5.86328125 7.8203125 C1.06704175 5.10979401 -4.05335857 5.32706644 -9.4375 5.25 C-10.45521484 5.22035156 -11.47292969 5.19070312 -12.52148438 5.16015625 C-15.01440028 5.08993327 -17.50640699 5.03700355 -20 5 C-20 4.67 -20 4.34 -20 4 C-18.72382813 3.96261719 -17.44765625 3.92523438 -16.1328125 3.88671875 C-14.46351162 3.82107209 -12.79424211 3.7546243 -11.125 3.6875 C-9.86236328 3.65366211 -9.86236328 3.65366211 -8.57421875 3.61914062 C-7.76855469 3.58369141 -6.96289062 3.54824219 -6.1328125 3.51171875 C-5.38918457 3.48553467 -4.64555664 3.45935059 -3.87939453 3.43237305 C-1.59266174 3.13270409 -1.59266174 3.13270409 0 0 Z " fill="#C0BCBD" transform="translate(219,36)"/>
<path d="M0 0 C3 1 3 1 4.125 3.125 C7.18483029 13.17872809 7.21500321 25.73043965 5 36 C4.01 36.66 3.02 37.32 2 38 C1.96261719 37.34515625 1.92523438 36.6903125 1.88671875 36.015625 C1.5114923 30.80659892 0.82379639 25.97917226 -0.5625 20.9375 C-2.42311782 13.91457978 -3.55777549 6.67082905 0 0 Z " fill="#B0A8AB" transform="translate(254,168)"/>
<path d="M0 0 C1.41750563 0.11509661 2.83401169 0.24253658 4.25 0.375 C5.03890625 0.44460938 5.8278125 0.51421875 6.640625 0.5859375 C9.10427696 1.01830026 10.79188892 1.86032977 13 3 C15.32495277 3.38749213 17.65851268 3.72982839 20 4 C20.33 4.99 20.66 5.98 21 7 C22.134375 6.979375 23.26875 6.95875 24.4375 6.9375 C29.00782755 6.9293241 33.47238262 7.41308664 38 8 C37.34 7.01 36.68 6.02 36 5 C36.33 4.34 36.66 3.68 37 3 C36.34 2.67 35.68 2.34 35 2 C35.66 2 36.32 2 37 2 C37.33 1.34 37.66 0.68 38 0 C39.11375 0.4640625 39.11375 0.4640625 40.25 0.9375 C45.44702225 2.40998964 50.62487263 2.66949055 56 3 C55.04038479 5.43671925 54.48940586 6.73201666 52.15234375 8.01171875 C44.1285074 10.45990868 37.4701019 11.69827293 29.26171875 9.53515625 C26.92795972 8.9829542 24.70109214 8.75054662 22.3125 8.5625 C18.31965089 8.18189913 15.56657181 6.86082007 12 5 C10.824375 4.855625 9.64875 4.71125 8.4375 4.5625 C4.52541362 3.92234041 2.85071871 2.67794788 0 0 Z " fill="#DEA8AC" transform="translate(101,275)"/>
<path d="M0 0 C0.66 0 1.32 0 2 0 C-1.16887304 26.17654243 -1.16887304 26.17654243 -3 36 C-2.01 36.33 -1.02 36.66 0 37 C0 38.32 0 39.64 0 41 C-1.65 40.67 -3.3 40.34 -5 40 C-7.45696834 26.00405535 -9.00620024 13.39669715 -1 1 C-0.67 0.67 -0.34 0.34 0 0 Z " fill="#B1A9AC" transform="translate(250,193)"/>
<path d="M0 0 C7.09315686 0.75625569 14.01464264 2.13422246 21 3.5625 C22.15628906 3.79646484 23.31257813 4.03042969 24.50390625 4.27148438 C27.33648314 4.84502267 30.16848202 5.42126068 33 6 C33.495 7.485 33.495 7.485 34 9 C24.36601444 12.21132852 12.98621973 10.2180215 4 6 C1.66796875 4.55078125 1.66796875 4.55078125 0 3 C0 2.01 0 1.02 0 0 Z " fill="#ADA5A7" transform="translate(186,71)"/>
<path d="M0 0 C-3.10564272 5.67117367 -7.08945028 9.28506376 -13 12 C-16.6808204 12.72572876 -20.25228052 12.98598983 -24 13 C-24 12.34 -24 11.68 -24 11 C-24.66 10.67 -25.32 10.34 -26 10 C-19.71410333 2.97699492 -9.13418203 -0.36536728 0 0 Z " fill="#B4ADB0" transform="translate(350,167)"/>
<path d="M0 0 C2.5116382 3.7674573 2.26432699 5.38618286 1.7578125 9.75 C0.11363236 16.80132927 -3.0689206 23.40315811 -6 30 C-6.66 30 -7.32 30 -8 30 C-7.67 31.32 -7.34 32.64 -7 34 C-7.66 34 -8.32 34 -9 34 C-9.65461141 22.12001514 -8.23480996 10.70987652 -1 1 C-0.67 0.67 -0.34 0.34 0 0 Z " fill="#B4ADAF" transform="translate(310,163)"/>
<path d="M0 0 C0.99 0 1.98 0 3 0 C3.33 0.99 3.66 1.98 4 3 C4.36996094 4.01449219 4.73992187 5.02898437 5.12109375 6.07421875 C7.39901827 12.32668219 9.56780744 18.49003383 11 25 C11.33 22.69 11.66 20.38 12 18 C12.33 18 12.66 18 13 18 C13 22.95 13 27.9 13 33 C12.34 33 11.68 33 11 33 C10.67 35.31 10.34 37.62 10 40 C9.67 40 9.34 40 9 40 C8.78085937 38.75347656 8.56171875 37.50695312 8.3359375 36.22265625 C6.56413065 26.5791143 4.44462137 17.4339546 0.84326172 8.29516602 C-1.09559063 3.28677188 -1.09559063 3.28677188 0 0 Z " fill="#BFB8BA" transform="translate(283,132)"/>
<path d="M0 0 C0.99 0.33 1.98 0.66 3 1 C6.79517482 15.54817014 6.30692141 30.06630591 6 45 C5.01 45 4.02 45 3 45 C2.34 45.66 1.68 46.32 1 47 C1 44.36 1 41.72 1 39 C1.99 39.33 2.98 39.66 4 40 C3.66357702 30.19325185 3.66357702 30.19325185 2 20.5625 C0.27419688 13.89111183 0.3195163 6.85278387 0 0 Z " fill="#B2ADAF" transform="translate(292,125)"/>
<path d="M0 0 C5.64421701 0.95664695 11.06302469 2.53282314 16.5 4.3125 C17.7065625 4.70050781 18.913125 5.08851562 20.15625 5.48828125 C23 7 23 7 23.90625 9.66796875 C23.9371875 10.43753906 23.968125 11.20710938 24 12 C14.89971428 12.48751531 7.13463561 9.83581167 0 4 C-0.33 3.01 -0.66 2.02 -1 1 C-0.67 0.67 -0.34 0.34 0 0 Z " fill="#B2AAAE" transform="translate(231,92)"/>
<path d="M0 0 C-0.37650917 5.27112844 -2.16390553 8.48358007 -6 12 C-8.53016583 13.95786642 -11.02023954 15.80928061 -14 17 C-16.24609375 16.62890625 -16.24609375 16.62890625 -18 16 C-15.21989587 9.3972527 -11.8755382 5.16234226 -6 1 C-3 0 -3 0 0 0 Z " fill="#B4ADB0" transform="translate(263,236)"/>
<path d="M0 0 C4.69995057 2.17570745 8.64326507 5.03504934 12 9 C12.91598532 11.82428807 12.94884905 13.98209403 13 17 C13.33 17.66 13.66 18.32 14 19 C9.71449811 18.49890292 7.779909 17.28118172 4.8125 14.1875 C4.13832031 13.50042969 3.46414062 12.81335938 2.76953125 12.10546875 C-0.29901627 8.45437137 -1.38851828 5.79172547 -1 1 C-0.67 0.67 -0.34 0.34 0 0 Z " fill="#B5ADB0" transform="translate(234,60)"/>
<path d="M0 0 C0.99 0.33 1.98 0.66 3 1 C2.60838423 8.64325954 1.77868296 16.13579944 0.5625 23.6875 C0.44028076 24.47753418 0.31806152 25.26756836 0.19213867 26.08154297 C-0.75905839 31.75905839 -0.75905839 31.75905839 -3 34 C-3.99 34 -4.98 34 -6 34 C-5.79503906 33.1028125 -5.59007812 32.205625 -5.37890625 31.28125 C-3.56478274 22.87899376 -2.58660651 14.8587468 -2.30859375 6.265625 C-2 3 -2 3 0 0 Z " fill="#BAB3B6" transform="translate(295,169)"/>
<path d="M0 0 C3.60401481 -0.08701039 7.20776012 -0.14039388 10.8125 -0.1875 C12.34874023 -0.22520508 12.34874023 -0.22520508 13.91601562 -0.26367188 C15.39038086 -0.27817383 15.39038086 -0.27817383 16.89453125 -0.29296875 C18.25348511 -0.31653442 18.25348511 -0.31653442 19.63989258 -0.34057617 C22.42444206 0.06124927 23.27599535 0.83688562 25 3 C24.67 3.99 24.34 4.98 24 6 C16.10042938 6.27990605 8.7527507 5.51537186 1 4 C0.67 2.68 0.34 1.36 0 0 Z " fill="#AEA8AA" transform="translate(88,17)"/>
<path d="M0 0 C0.66 1.32 1.32 2.64 2 4 C0.71937515 5.7074998 -0.61767557 7.37373596 -2 9 C-2.66 9 -3.32 9 -4 9 C-4 9.66 -4 10.32 -4 11 C-4.66 11 -5.32 11 -6 11 C-6 11.66 -6 12.32 -6 13 C-6.66 13 -7.32 13 -8 13 C-8 13.66 -8 14.32 -8 15 C-8.66 15 -9.32 15 -10 15 C-10 15.66 -10 16.32 -10 17 C-11.61457079 18.43581474 -13.29219075 19.80144783 -15 21.125 C-15.928125 21.84945313 -16.85625 22.57390625 -17.8125 23.3203125 C-18.534375 23.87460937 -19.25625 24.42890625 -20 25 C-20.66 23.68 -21.32 22.36 -22 21 C-21.01 20.67 -20.02 20.34 -19 20 C-19 19.34 -19 18.68 -19 18 C-17.5390625 16.4921875 -17.5390625 16.4921875 -15.625 14.875 C-14.99851563 14.33617187 -14.37203125 13.79734375 -13.7265625 13.2421875 C-12 12 -12 12 -10 12 C-10 11.34 -10 10.68 -10 10 C-8.125 7.875 -8.125 7.875 -6 6 C-5.34 6 -4.68 6 -4 6 C-3.566875 5.071875 -3.566875 5.071875 -3.125 4.125 C-2 2 -2 2 0 0 Z " fill="#BAB6B8" transform="translate(269,240)"/>
<path d="M0 0 C1.65 0 3.3 0 5 0 C3.02 0.99 3.02 0.99 1 2 C0.67 1.34 0.34 0.68 0 0 Z M-12 1 C-12 1.33 -12 1.66 -12 2 C-8.04 2 -4.08 2 0 2 C0 2.66 0 3.32 0 4 C-1.60681641 4.07347656 -1.60681641 4.07347656 -3.24609375 4.1484375 C-4.64325639 4.22345294 -6.0403905 4.2990013 -7.4375 4.375 C-8.14455078 4.4059375 -8.85160156 4.436875 -9.58007812 4.46875 C-11.39239188 4.57280629 -13.19817988 4.77919892 -15 5 C-15.33 5.66 -15.66 6.32 -16 7 C-16 6.34 -16 5.68 -16 5 C-16.99 5.33 -17.98 5.66 -19 6 C-20.95584013 6 -22.91230917 5.99882952 -24.8671875 5.9375 C-27.05425633 5.93873002 -27.05425633 5.93873002 -29.36328125 6.49609375 C-32.39999505 7.0764435 -35.22323107 7.09644801 -38.3125 7.0625 C-39.38113281 7.05347656 -40.44976562 7.04445313 -41.55078125 7.03515625 C-42.35902344 7.02355469 -43.16726562 7.01195312 -44 7 C-44 6.67 -44 6.34 -44 6 C-40.37 6 -36.74 6 -33 6 C-33 5.34 -33 4.68 -33 4 C-34.32 3.67 -35.64 3.34 -37 3 C-34.33397504 2.66068773 -31.66736986 2.32842824 -29 2 C-27.88431641 1.85691406 -27.88431641 1.85691406 -26.74609375 1.7109375 C-21.79111949 1.10772324 -16.99157504 0.90924409 -12 1 Z " fill="#C1BBBD" transform="translate(170,25)"/>
<path d="M0 0 C-0.33519474 5.36311579 -3.54134253 9.12824761 -7 13 C-8.3064136 14.0349209 -9.63363947 15.04562236 -11 16 C-11.66 15.01 -12.32 14.02 -13 13 C-13.78375 13.515625 -14.5675 14.03125 -15.375 14.5625 C-16.24125 15.036875 -17.1075 15.51125 -18 16 C-18.66 15.67 -19.32 15.34 -20 15 C-3.73333333 0 -3.73333333 0 0 0 Z " fill="#ADA7A9" transform="translate(329,184)"/>
<path d="M0 0 C1.640625 1.10546875 1.640625 1.10546875 4.078125 3.10546875 C3.748125 4.42546875 3.418125 5.74546875 3.078125 7.10546875 C3.078125 6.44546875 3.078125 5.78546875 3.078125 5.10546875 C1.428125 5.10546875 -0.221875 5.10546875 -1.921875 5.10546875 C-1.57125 5.66234375 -1.220625 6.21921875 -0.859375 6.79296875 C0.29658493 9.64433658 -0.11220062 11.19064097 -0.921875 14.10546875 C-1.251875 14.10546875 -1.581875 14.10546875 -1.921875 14.10546875 C-2.169375 13.19796875 -2.416875 12.29046875 -2.671875 11.35546875 C-4.00722491 7.883559 -5.00906966 6.37098401 -7.921875 4.10546875 C-11.05538217 2.83762751 -11.05538217 2.83762751 -13.921875 2.10546875 C-13.921875 1.44546875 -13.921875 0.78546875 -13.921875 0.10546875 C-9.43712826 -1.38944683 -4.4097254 -2.05249414 0 0 Z " fill="#DEAAAC" transform="translate(168.921875,238.89453125)"/>
<path d="M0 0 C4.71370756 0.64985095 8.57686444 2.51561392 12.8125 4.5625 C13.50537109 4.89185547 14.19824219 5.22121094 14.91210938 5.56054688 C16.61044948 6.36872251 18.30555769 7.18368377 20 8 C18.6875 9.5 18.6875 9.5 17 11 C16.01 11 15.02 11 14 11 C14 10.34 14 9.68 14 9 C13.32195312 8.87882812 12.64390625 8.75765625 11.9453125 8.6328125 C5.61492691 7.49299238 -0.69752644 6.28510307 -7 5 C-7 4.67 -7 4.34 -7 4 C-5.02 3.67 -3.04 3.34 -1 3 C-0.67 2.01 -0.34 1.02 0 0 Z " fill="#BDB6B9" transform="translate(113,19)"/>
<path d="M0 0 C0.66 0 1.32 0 2 0 C4.86964374 6.25172386 6.51137226 11.09647445 6 18 C4.5393715 15.35261084 4 14.10551666 4 11 C-0.0903257 13.10043752 -1.75392599 15.04263151 -4 19 C-4.66 19 -5.32 19 -6 19 C-4.12275039 12.62267685 -2.14328358 6.29304541 0 0 Z " fill="#E0AEAF" transform="translate(166,83)"/>
<path d="M0 0 C2.76005852 3.36192151 5.27003626 6.78056291 7.625 10.4375 C8.51058594 11.79681641 8.51058594 11.79681641 9.4140625 13.18359375 C11.0359988 16.06392889 12.05939986 18.83827973 13 22 C12.34 22 11.68 22 11 22 C10.67 22.99 10.34 23.98 10 25 C8.51706418 22.23116804 7.03931138 19.4596027 5.5625 16.6875 C5.14162109 15.90181641 4.72074219 15.11613281 4.28710938 14.30664062 C3.88427734 13.54931641 3.48144531 12.79199219 3.06640625 12.01171875 C2.69459229 11.31522217 2.32277832 10.61872559 1.93969727 9.90112305 C1 8 1 8 0 5 C-0.66 4.67 -1.32 4.34 -2 4 C-1.34 4 -0.68 4 0 4 C0 2.68 0 1.36 0 0 Z " fill="#BDB9BA" transform="translate(271,108)"/>
<path d="M0 0 C3.68754757 0.49831724 5.60490662 1.10067643 8 4 C7.01 5.485 7.01 5.485 6 7 C4.02880859 7.34057617 4.02880859 7.34057617 1.6484375 7.29296875 C0.79765625 7.28330078 -0.053125 7.27363281 -0.9296875 7.26367188 C-1.81914062 7.23853516 -2.70859375 7.21339844 -3.625 7.1875 C-4.5221875 7.17396484 -5.419375 7.16042969 -6.34375 7.14648438 C-8.56309789 7.11106925 -10.78125188 7.06168461 -13 7 C-12.505 6.525625 -12.01 6.05125 -11.5 5.5625 C-9.88457803 4.24076302 -9.88457803 4.24076302 -10 3 C-7.69 3 -5.38 3 -3 3 C-2.67 2.34 -2.34 1.68 -2 1 C-1.34 1.33 -0.68 1.66 0 2 C0 1.34 0 0.68 0 0 Z " fill="#A39D9F" transform="translate(211,33)"/>
<path d="M0 0 C1.07765625 0.19464844 2.1553125 0.38929687 3.265625 0.58984375 C4.08546875 0.74582031 4.9053125 0.90179688 5.75 1.0625 C6.08 2.0525 6.41 3.0425 6.75 4.0625 C3.21502138 5.24082621 -0.00893071 5.24647309 -3.6875 5.25 C-5.00621094 5.26417969 -6.32492188 5.27835937 -7.68359375 5.29296875 C-10.9050867 5.08478903 -12.58920999 4.78418766 -15.25 3.0625 C-14.610625 2.93875 -13.97125 2.815 -13.3125 2.6875 C-12.2915625 2.378125 -12.2915625 2.378125 -11.25 2.0625 C-10.92 1.4025 -10.59 0.7425 -10.25 0.0625 C-6.71042166 -1.3847575 -3.67754995 -0.67954727 0 0 Z " fill="#B0A9AB" transform="translate(213.25,75.9375)"/>
<path d="M0 0 C-2.97787635 5.12194732 -5.97188035 7.83414689 -11 11 C-11.66 11 -12.32 11 -13 11 C-13 8.69 -13 6.38 -13 4 C-13.66 3.67 -14.32 3.34 -15 3 C-9.63999211 0.74315457 -5.8022175 -0.36263859 0 0 Z " fill="#B7B0B2" transform="translate(350,167)"/>
<path d="M0 0 C2.00720923 0.28674418 4.0085944 0.61866701 6 1 C6 1.66 6 2.32 6 3 C5.42967041 3.05534912 4.85934082 3.11069824 4.27172852 3.16772461 C1.70151247 3.41973743 -0.86797631 3.67852728 -3.4375 3.9375 C-4.33533203 4.02451172 -5.23316406 4.11152344 -6.15820312 4.20117188 C-7.01220703 4.28818359 -7.86621094 4.37519531 -8.74609375 4.46484375 C-9.93223267 4.58267212 -9.93223267 4.58267212 -11.14233398 4.70288086 C-13.01103348 4.81551499 -13.01103348 4.81551499 -14 6 C-15.66617115 6.04063832 -17.33388095 6.042721 -19 6 C-19.66 4.35 -20.32 2.7 -21 1 C-20.09906616 1.00785522 -20.09906616 1.00785522 -19.17993164 1.01586914 C-16.47413162 1.03658014 -13.76834823 1.04964125 -11.0625 1.0625 C-10.11697266 1.07087891 -9.17144531 1.07925781 -8.19726562 1.08789062 C-7.29814453 1.09111328 -6.39902344 1.09433594 -5.47265625 1.09765625 C-4.64000244 1.10289307 -3.80734863 1.10812988 -2.94946289 1.11352539 C-0.99483202 1.21643292 -0.99483202 1.21643292 0 0 Z " fill="#A49D9F" transform="translate(131,28)"/>
<path d="M0 0 C2.01822917 0.06510417 4.03645833 0.13020833 6.0546875 0.1953125 C5.7246875 1.1853125 5.3946875 2.1753125 5.0546875 3.1953125 C5.7146875 3.1953125 6.3746875 3.1953125 7.0546875 3.1953125 C7.0546875 2.5353125 7.0546875 1.8753125 7.0546875 1.1953125 C10.0246875 1.6903125 10.0246875 1.6903125 13.0546875 2.1953125 C13.0546875 3.1853125 13.0546875 4.1753125 13.0546875 5.1953125 C9.72295876 7.25928367 7.7930711 7.31614521 3.9921875 6.5078125 C3.13496094 6.33894531 2.27773437 6.17007812 1.39453125 5.99609375 C-1.11901528 5.13586497 -2.25477146 4.20733348 -3.9453125 2.1953125 C-1.9453125 0.1953125 -1.9453125 0.1953125 0 0 Z " fill="#B5ACAF" transform="translate(152.9453125,18.8046875)"/>
<path d="M0 0 C0.66 0 1.32 0 2 0 C3.27861615 2.55723229 3.11336609 4.36737102 3.09765625 7.2265625 C3.09282227 8.7734375 3.09282227 8.7734375 3.08789062 10.3515625 C3.07951172 11.43179688 3.07113281 12.51203125 3.0625 13.625 C3.05798828 14.71296875 3.05347656 15.8009375 3.04882812 16.921875 C3.03701776 19.61463789 3.02054778 22.30729188 3 25 C2.01 25 1.02 25 0 25 C-0.66 25.66 -1.32 26.32 -2 27 C-2 24.36 -2 21.72 -2 19 C-1.01 19.33 -0.02 19.66 1 20 C0.67 13.4 0.34 6.8 0 0 Z " fill="#A19A9D" transform="translate(295,145)"/>
<path d="M0 0 C0.33 0 0.66 0 1 0 C1 2.31 1 4.62 1 7 C2.32 6.67 3.64 6.34 5 6 C4.67 7.32 4.34 8.64 4 10 C3.01 10 2.02 10 1 10 C0.67 11.65 0.34 13.3 0 15 C-1.32 14.67 -2.64 14.34 -4 14 C-4.31549088 8.7418187 -3.70016294 5.53627373 -1 1 C-0.67 0.67 -0.34 0.34 0 0 Z " fill="#A89EA0" transform="translate(291,201)"/>
<path d="M0 0 C1.41750563 0.11509661 2.83401169 0.24253658 4.25 0.375 C5.03890625 0.44460938 5.8278125 0.51421875 6.640625 0.5859375 C9.10427696 1.01830026 10.79188892 1.86032977 13 3 C15.32495277 3.38749213 17.65851268 3.72982839 20 4 C20.33 4.99 20.66 5.98 21 7 C22.216875 6.95875 23.43375 6.9175 24.6875 6.875 C28.21894127 6.86245492 30.80003566 7.40001783 34 9 C27.95042071 11.01652643 20.29698948 9.06342106 14.625 6.4375 C13.75875 5.963125 12.8925 5.48875 12 5 C10.824375 4.855625 9.64875 4.71125 8.4375 4.5625 C4.52541362 3.92234041 2.85071871 2.67794788 0 0 Z " fill="#D4A3A7" transform="translate(101,275)"/>
<path d="M0 0 C-0.75 4.75 -0.75 4.75 -3 7 C-3.67292501 8.96690374 -3.67292501 8.96690374 -4.125 11.125 C-4.41375 12.40375 -4.7025 13.6825 -5 15 C-4.34 15.33 -3.68 15.66 -3 16 C-3.33 16.66 -3.66 17.32 -4 18 C-4.66 18 -5.32 18 -6 18 C-6 17.34 -6 16.68 -6 16 C-6.66 16 -7.32 16 -8 16 C-7.18754124 4.9890458 -7.18754124 4.9890458 -5 1 C-3 0 -3 0 0 0 Z " fill="#DF999B" transform="translate(174,247)"/>
<path d="M0 0 C0.99 0.66 1.98 1.32 3 2 C3 2.99 3 3.98 3 5 C1.35 5.66 -0.3 6.32 -2 7 C-2 7.66 -2 8.32 -2 9 C-4.31 9 -6.62 9 -9 9 C-9 7.68 -9 6.36 -9 5 C-8.071875 4.54625 -7.14375 4.0925 -6.1875 3.625 C-2.96078611 2.0578367 -2.96078611 2.0578367 0 0 Z " fill="#B0A7AA" transform="translate(315,196)"/>
<path d="M0 0 C1.31823302 0.59155331 2.62947051 1.19871463 3.9375 1.8125 C4.66839844 2.14894531 5.39929688 2.48539063 6.15234375 2.83203125 C8 4 8 4 9 7 C6 8 6 8 4.13769531 7.08837891 C3.07953613 6.54963135 3.07953613 6.54963135 2 6 C-0.50965963 5.63745194 -0.50965963 5.63745194 -3.203125 5.5859375 C-4.67265625 5.52792969 -4.67265625 5.52792969 -6.171875 5.46875 C-7.18765625 5.4378125 -8.2034375 5.406875 -9.25 5.375 C-10.796875 5.31699219 -10.796875 5.31699219 -12.375 5.2578125 C-14.9164894 5.16368326 -17.45797433 5.07805021 -20 5 C-20 4.67 -20 4.34 -20 4 C-18.72382813 3.96261719 -17.44765625 3.92523438 -16.1328125 3.88671875 C-14.46351162 3.82107209 -12.79424211 3.7546243 -11.125 3.6875 C-9.86236328 3.65366211 -9.86236328 3.65366211 -8.57421875 3.61914062 C-7.76855469 3.58369141 -6.96289062 3.54824219 -6.1328125 3.51171875 C-5.38918457 3.48553467 -4.64555664 3.45935059 -3.87939453 3.43237305 C-1.59266174 3.13270409 -1.59266174 3.13270409 0 0 Z " fill="#CAC7C8" transform="translate(219,36)"/>
<path d="M0 0 C1.32 0 2.64 0 4 0 C4 0.99 4 1.98 4 3 C3.34 3.66 2.68 4.32 2 5 C2 6.32 2 7.64 2 9 C-1.47325181 10.1577506 -4.36067448 10.06866652 -8 10 C-7.67 8.68 -7.34 7.36 -7 6 C-6.21625 5.938125 -5.4325 5.87625 -4.625 5.8125 C-3.75875 5.544375 -2.8925 5.27625 -2 5 C-0.62533375 2.52363988 -0.62533375 2.52363988 0 0 Z " fill="#AAA3A6" transform="translate(205,279)"/>
<path d="M0 0 C6.75 0.875 6.75 0.875 9 2 C9 3.65 9 5.3 9 7 C0.42857143 6.14285714 0.42857143 6.14285714 -3 4 C-3 3.34 -3 2.68 -3 2 C-2.01 2 -1.02 2 0 2 C0 1.34 0 0.68 0 0 Z " fill="#AAA1A4" transform="translate(196,27)"/>
<path d="M0 0 C0.33 0 0.66 0 1 0 C0.67 4.95 0.34 9.9 0 15 C0.99 15.33 1.98 15.66 3 16 C3 17.32 3 18.64 3 20 C1.35 19.67 -0.3 19.34 -2 19 C-3.24839084 14.00643666 -3.98772643 8.5022403 -2.0625 3.625 C-1.711875 3.08875 -1.36125 2.5525 -1 2 C-0.67 1.34 -0.34 0.68 0 0 Z " fill="#A69EA0" transform="translate(247,214)"/>
<path d="M0 0 C0.99 0 1.98 0 3 0 C3 0.66 3 1.32 3 2 C3.66 2.33 4.32 2.66 5 3 C3.04350603 3.83764268 1.08474444 4.66999059 -0.875 5.5 C-1.96554688 5.9640625 -3.05609375 6.428125 -4.1796875 6.90625 C-7 8 -7 8 -9 8 C-9 7.01 -9 6.02 -9 5 C-9.66 4.67 -10.32 4.34 -11 4 C-10.28972656 3.79503906 -9.57945312 3.59007812 -8.84765625 3.37890625 C-7.92855469 3.10949219 -7.00945312 2.84007812 -6.0625 2.5625 C-4.68771484 2.16224609 -4.68771484 2.16224609 -3.28515625 1.75390625 C-1.0597507 1.20973949 -1.0597507 1.20973949 0 0 Z " fill="#BEBABC" transform="translate(216,279)"/>
<path d="M0 0 C3 1 3 1 4.1875 3.1875 C5.07334979 6.25390311 5.14770318 8.82438155 5 12 C4.67 10.68 4.34 9.36 4 8 C3.01 8.33 2.02 8.66 1 9 C-0.22520264 12.00847418 -0.22520264 12.00847418 -1 15 C-1.33 15 -1.66 15 -2 15 C-2.3690205 4.44191344 -2.3690205 4.44191344 0 0 Z " fill="#B9B4B6" transform="translate(254,168)"/>
<path d="M0 0 C0.66 0 1.32 0 2 0 C4.26606344 4.13223332 4.06081228 7.47633383 3.6796875 12.01171875 C3 14 3 14 1.0703125 15.33203125 C-1 16 -1 16 -3 15 C-3 14.01 -3 13.02 -3 12 C-2.01 12 -1.02 12 0 12 C0 8.04 0 4.08 0 0 Z " fill="#ABA6A8" transform="translate(285,118)"/>
<path d="M0 0 C0.99 1.485 0.99 1.485 2 3 C2.66 2.01 3.32 1.02 4 0 C4 0.66 4 1.32 4 2 C5.65 1.67 7.3 1.34 9 1 C7.35 4.63 5.7 8.26 4 12 C0 9 0 9 -0.390625 6.73828125 C-0.34421875 5.93777344 -0.2978125 5.13726562 -0.25 4.3125 C-0.21390625 3.50425781 -0.1778125 2.69601563 -0.140625 1.86328125 C-0.09421875 1.24839844 -0.0478125 0.63351563 0 0 Z " fill="#C3BDC0" transform="translate(247,220)"/>
<path d="M0 0 C0.66 0 1.32 0 2 0 C2.20674944 5.78898419 1.59162079 10.42932723 0 16 C-0.99 16 -1.98 16 -3 16 C-4.52949845 12.94100311 -3.40731449 10.70671329 -2.625 7.4375 C-2.34914063 6.26058594 -2.07328125 5.08367187 -1.7890625 3.87109375 C-1 1 -1 1 0 0 Z " fill="#BAB5B6" transform="translate(293,187)"/>
<path d="M0 0 C-0.61875 0.04125 -1.2375 0.0825 -1.875 0.125 C-2.57625 0.41375 -3.2775 0.7025 -4 1 C-4.33 1.99 -4.66 2.98 -5 4 C-6 7 -6 7 -7.625 7.875 C-11.09199463 8.0574734 -14.52785608 8.05786907 -18 8 C-15 6 -15 6 -11 6 C-10.67 4.35 -10.34 2.7 -10 1 C-8.71073008 0.63720544 -7.41846728 0.28503302 -6.125 -0.0625 C-5.40570313 -0.25972656 -4.68640625 -0.45695312 -3.9453125 -0.66015625 C-2 -1 -2 -1 0 0 Z " fill="#BAB4B6" transform="translate(195,286)"/>
<path d="M0 0 C0.33 0 0.66 0 1 0 C1.27390597 5.41491027 0.34388522 9.75819476 -1.4375 14.8125 C-3.46675768 20.87704534 -4.82975612 26.56168586 -5 33 C-5.33 33 -5.66 33 -6 33 C-6 28.38 -6 23.76 -6 19 C-5.34 19 -4.68 19 -4 19 C-4 17.02 -4 15.04 -4 13 C-3.34 13 -2.68 13 -2 13 C-2.061875 11.453125 -2.061875 11.453125 -2.125 9.875 C-2.00424851 6.13170373 -1.35127982 3.46265453 0 0 Z " fill="#E3B4B7" transform="translate(171,108)"/>
<path d="M0 0 C3.80625982 1.49531636 5.77940501 3.58980056 8 7 C8.25 9.8125 8.25 9.8125 8 12 C6.125 11.8125 6.125 11.8125 4 11 C2.875 8.5 2.875 8.5 2 6 C1.34 5.67 0.68 5.34 0 5 C-0.6875 3 -0.6875 3 -1 1 C-0.67 0.67 -0.34 0.34 0 0 Z " fill="#ADA6A9" transform="translate(263,100)"/>
<path d="M0 0 C1.9609375 0.26953125 1.9609375 0.26953125 4.375 0.8125 C5.56222656 1.06966797 5.56222656 1.06966797 6.7734375 1.33203125 C9 2 9 2 12 4 C10.68 4 9.36 4 8 4 C8.33 4.99 8.66 5.98 9 7 C8.01 7.33 7.02 7.66 6 8 C0.26229508 4.78688525 0.26229508 4.78688525 -1 1 C-0.67 0.67 -0.34 0.34 0 0 Z " fill="#BAB5B6" transform="translate(231,92)"/>
<path d="M0 0 C0.99 0 1.98 0 3 0 C2.34 3.63 1.68 7.26 1 11 C0.34 11 -0.32 11 -1 11 C-1.33 10.34 -1.66 9.68 -2 9 C-3.98 9.99 -3.98 9.99 -6 11 C-5.39005934 7.93674247 -4.42271989 5.79949366 -2.625 3.25 C-2.20476562 2.63640625 -1.78453125 2.0228125 -1.3515625 1.390625 C-0.90554687 0.93171875 -0.45953125 0.4728125 0 0 Z " fill="#BAB6B7" transform="translate(231,235)"/>
<path d="M0 0 C3.17538332 0.34021964 4.02276865 1.02466604 6.25 3.4375 C8 6 8 6 8 8 C8.66 8 9.32 8 10 8 C10 9.32 10 10.64 10 12 C6.88175879 10.63746417 4.95262649 9.14891747 2.75 6.5625 C2.22921875 5.96566406 1.7084375 5.36882812 1.171875 4.75390625 C0 3 0 3 0 0 Z " fill="#B7B3B4" transform="translate(261,69)"/>
<path d="M0 0 C0.66 0 1.32 0 2 0 C2 0.66 2 1.32 2 2 C2.66 2 3.32 2 4 2 C3.54177532 5.46941546 3.10868317 8.67395049 2 12 C1.34 12 0.68 12 0 12 C0.33 13.32 0.66 14.64 1 16 C0.34 16 -0.32 16 -1 16 C-1.02725341 14.2709226 -1.04650987 12.54171824 -1.0625 10.8125 C-1.07410156 9.84957031 -1.08570313 8.88664063 -1.09765625 7.89453125 C-1.00486622 5.14423487 -0.62111685 2.67520409 0 0 Z " fill="#AFA9AB" transform="translate(302,181)"/>
<path d="M0 0 C3.5718623 3.5718623 4 8.10186234 4 13 C3.34 13 2.68 13 2 13 C1.67 13.99 1.34 14.98 1 16 C0.30359327 13.87790224 -0.38188357 11.75221473 -1.0625 9.625 C-1.44535156 8.44164063 -1.82820313 7.25828125 -2.22265625 6.0390625 C-3 3 -3 3 -2 1 C-1.34 1.33 -0.68 1.66 0 2 C0 1.34 0 0.68 0 0 Z " fill="#C1BBBC" transform="translate(290,112)"/>
<path d="M0 0 C1.65 0 3.3 0 5 0 C3.02 0.99 3.02 0.99 1 2 C0.67 1.34 0.34 0.68 0 0 Z M-20 1 C-17.36 1 -14.72 1 -12 1 C-12 1.33 -12 1.66 -12 2 C-8.04 2 -4.08 2 0 2 C0 2.66 0 3.32 0 4 C-1.60681641 4.07347656 -1.60681641 4.07347656 -3.24609375 4.1484375 C-4.64325639 4.22345294 -6.0403905 4.2990013 -7.4375 4.375 C-8.14455078 4.4059375 -8.85160156 4.436875 -9.58007812 4.46875 C-11.39239188 4.57280629 -13.19817988 4.77919892 -15 5 C-15.33 5.66 -15.66 6.32 -16 7 C-16 6.34 -16 5.68 -16 5 C-16.99 5.33 -17.98 5.66 -19 6 C-19.66 5.34 -20.32 4.68 -21 4 C-19.35 4 -17.7 4 -16 4 C-16 3.34 -16 2.68 -16 2 C-17.32 1.67 -18.64 1.34 -20 1 Z " fill="#C6C1C3" transform="translate(170,25)"/>
<path d="M0 0 C0.33 0.66 0.66 1.32 1 2 C0.34 2 -0.32 2 -1 2 C-1.020625 2.5775 -1.04125 3.155 -1.0625 3.75 C-2.36269267 6.8704624 -4.32728274 7.67041173 -7.2109375 9.265625 C-9 10 -9 10 -12 10 C-12 8.68 -12 7.36 -12 6 C-8.04 4.02 -4.08 2.04 0 0 Z " fill="#DCA5A7" transform="translate(109,137)"/>
<path d="M0 0 C-0.99 0 -1.98 0 -3 0 C-3 0.66 -3 1.32 -3 2 C-2.01 2.33 -1.02 2.66 0 3 C-7.33763707 4.17402193 -14.58165418 4.09377123 -22 4 C-22 3.67 -22 3.34 -22 3 C-17.38 2.67 -12.76 2.34 -8 2 C-8.33 1.01 -8.66 0.02 -9 -1 C-3.375 -2.25 -3.375 -2.25 0 0 Z " fill="#CCC3C5" transform="translate(228,78)"/>
<path d="M0 0 C0.66 0.66 1.32 1.32 2 2 C2.99 1.67 3.98 1.34 5 1 C6.13643966 4.40931897 5.86747764 5.00335456 4.5625 8.1875 C4.27503906 8.90292969 3.98757812 9.61835938 3.69140625 10.35546875 C3.46324219 10.89816406 3.23507813 11.44085938 3 12 C2.67 11.34 2.34 10.68 2 10 C1.01 10.33 0.02 10.66 -1 11 C-0.67 7.37 -0.34 3.74 0 0 Z " fill="#B7B2B4" transform="translate(223,251)"/>
<path d="M0 0 C0.55429688 0.37253906 1.10859375 0.74507813 1.6796875 1.12890625 C2.76636719 1.83853516 2.76636719 1.83853516 3.875 2.5625 C4.59429687 3.03816406 5.31359375 3.51382813 6.0546875 4.00390625 C6.69664062 4.33261719 7.33859375 4.66132812 8 5 C8.66 4.67 9.32 4.34 10 4 C10 4.99 10 5.98 10 7 C9.34 7 8.68 7 8 7 C8 7.66 8 8.32 8 9 C5.13132769 7.61735163 2.43975968 6.07851447 -0.25 4.375 C-0.95640625 3.92898437 -1.6628125 3.48296875 -2.390625 3.0234375 C-2.92171875 2.68570313 -3.4528125 2.34796875 -4 2 C-3.34 1.67 -2.68 1.34 -2 1 C-1.34 1.33 -0.68 1.66 0 2 C0 1.34 0 0.68 0 0 Z " fill="#C1BDBF" transform="translate(242,81)"/>
<path d="M0 0 C4.8274799 1.41292095 8.7162359 3.42974154 13 6 C13 6.66 13 7.32 13 8 C11.58194169 7.71517632 10.16559621 7.42181856 8.75 7.125 C7.96109375 6.96257812 7.1721875 6.80015625 6.359375 6.6328125 C4.03168856 6.00849925 2.10968048 5.15161458 0 4 C0 2.68 0 1.36 0 0 Z " fill="#B4B0B1" transform="translate(229,75)"/>
<path d="M0 0 C1.98 0.495 1.98 0.495 4 1 C4 1.66 4 2.32 4 3 C5.32 3.66 6.64 4.32 8 5 C7.34 5 6.68 5 6 5 C6 5.66 6 6.32 6 7 C4.55245745 8.44754255 2.96037087 8.55733561 1 9 C1 8.34 1 7.68 1 7 C0.34 6.67 -0.32 6.34 -1 6 C-0.67 4.02 -0.34 2.04 0 0 Z " fill="#BAAFB2" transform="translate(205,28)"/>
<path d="M0 0 C8.57142857 2 8.57142857 2 12 4 C12 4.66 12 5.32 12 6 C6.93437617 6.25328119 2.84241633 5.33583899 -2 4 C-1.34 3.67 -0.68 3.34 0 3 C0 2.01 0 1.02 0 0 Z " fill="#B7AEB1" transform="translate(180,20)"/>
<path d="M0 0 C0.66 0.33 1.32 0.66 2 1 C0.6015209 4.4087928 -0.85006933 5.87393835 -4 7.75 C-5.051875 8.39195312 -5.051875 8.39195312 -6.125 9.046875 C-8 10 -8 10 -10 10 C-9.65514457 7.1157546 -9.21744593 6.1792182 -6.93359375 4.296875 C-6.10988281 3.78640625 -5.28617188 3.2759375 -4.4375 2.75 C-3.61121094 2.22921875 -2.78492188 1.7084375 -1.93359375 1.171875 C-1.29550781 0.78515625 -0.65742188 0.3984375 0 0 Z " fill="#B1ADAE" transform="translate(246,262)"/>
<path d="M0 0 C0.55171875 0.26683594 1.1034375 0.53367187 1.671875 0.80859375 C1.109375 3.18359375 1.109375 3.18359375 -0.328125 5.80859375 C-3.765625 6.93359375 -3.765625 6.93359375 -7.328125 7.80859375 C-9.22982554 9.28621034 -9.22982554 9.28621034 -10.328125 10.80859375 C-10.988125 10.47859375 -11.648125 10.14859375 -12.328125 9.80859375 C-10.7605732 8.10642395 -9.17352716 6.42218821 -7.578125 4.74609375 C-6.69640625 3.80636719 -5.8146875 2.86664063 -4.90625 1.8984375 C-2.328125 -0.19140625 -2.328125 -0.19140625 0 0 Z " fill="#E0B0B1" transform="translate(93.328125,89.19140625)"/>
<path d="M0 0 C0.33 0 0.66 0 1 0 C1 4.95 1 9.9 1 15 C0.34 15 -0.32 15 -1 15 C-1.33 17.31 -1.66 19.62 -2 22 C-2.33 22 -2.66 22 -3 22 C-3.33 18.04 -3.66 14.08 -4 10 C-3.34 10 -2.68 10 -2 10 C-1.34 6.7 -0.68 3.4 0 0 Z " fill="#C2B9BB" transform="translate(295,150)"/>
<path d="M0 0 C5.1596937 1.92223883 8.25572134 3.80186938 12 8 C9.50907189 9.24546405 8.58919267 8.7767578 6 8 C6 7.34 6 6.68 6 6 C5.195625 5.7525 4.39125 5.505 3.5625 5.25 C1 4 1 4 0.1875 1.875 C0.125625 1.25625 0.06375 0.6375 0 0 Z " fill="#B8B4B5" transform="translate(238,49)"/>
<path d="M0 0 C1.98 0 3.96 0 6 0 C2.19588166 3.91939465 -1.81576108 7.49102731 -6 11 C-6.33 10.01 -6.66 9.02 -7 8 C-6.01 8 -5.02 8 -4 8 C-3.67 6.35 -3.34 4.7 -3 3 C-2.34 3 -1.68 3 -1 3 C-0.67 2.01 -0.34 1.02 0 0 Z " fill="#E2AFB4" transform="translate(89,142)"/>
<path d="M0 0 C0.66 0.33 1.32 0.66 2 1 C1.01 2.485 1.01 2.485 0 4 C0.3121764 6.64632287 0.3121764 6.64632287 1 9 C0.01 9.495 0.01 9.495 -1 10 C-1.66 9.01 -2.32 8.02 -3 7 C-3.78375 7.515625 -4.5675 8.03125 -5.375 8.5625 C-6.24125 9.036875 -7.1075 9.51125 -8 10 C-8.66 9.67 -9.32 9.34 -10 9 C-6.7 6.03 -3.4 3.06 0 0 Z " fill="#BCB5B8" transform="translate(319,190)"/>
<path d="M0 0 C2.8992226 0.46761655 3.86675182 0.86675182 6 3 C6 4.32 6 5.64 6 7 C3.69 6.67 1.38 6.34 -1 6 C-1.042721 4.33388095 -1.04063832 2.66617115 -1 1 C-0.67 0.67 -0.34 0.34 0 0 Z " fill="#ADA5A8" transform="translate(200,51)"/>
<path d="M0 0 C7.26153846 0.36923077 7.26153846 0.36923077 11 3.5625 C11.99 4.7690625 11.99 4.7690625 13 6 C12.01 6.495 12.01 6.495 11 7 C8.3984375 5.78515625 8.3984375 5.78515625 5.375 4.0625 C4.37210937 3.49660156 3.36921875 2.93070312 2.3359375 2.34765625 C1.56507812 1.90292969 0.79421875 1.45820313 0 1 C0 0.67 0 0.34 0 0 Z " fill="#BEAFB0" transform="translate(108,279)"/>
<path d="M0 0 C0.33 0 0.66 0 1 0 C1 1.65 1 3.3 1 5 C1.99 4.67 2.98 4.34 4 4 C4.6875 6.3125 4.6875 6.3125 5 9 C3.6875 10.8125 3.6875 10.8125 2 12 C1.34 12 0.68 12 0 12 C0 8.04 0 4.08 0 0 Z " fill="#B4ADAF" transform="translate(244,228)"/>
<path d="M0 0 C0.66 0 1.32 0 2 0 C3 5 4 10 5 15 C4.01 15 3.02 15 2 15 C-0.10428384 9.87080814 -0.21755666 5.4389165 0 0 Z " fill="#DCABAD" transform="translate(79,219)"/>
<path d="M0 0 C1.32 1.65 2.64 3.3 4 5 C2.35 7.31 0.7 9.62 -1 12 C-1.66 11.01 -2.32 10.02 -3 9 C-2.5390625 6.73828125 -2.5390625 6.73828125 -1.625 4.3125 C-1.32851563 3.50425781 -1.03203125 2.69601563 -0.7265625 1.86328125 C-0.48679687 1.24839844 -0.24703125 0.63351563 0 0 Z " fill="#B5B0B2" transform="translate(286,212)"/>
<path d="M0 0 C0.99 0 1.98 0 3 0 C4.0013988 3.00419641 4.51421457 5.87709365 5 9 C4.01 9.66 3.02 10.32 2 11 C1.01 7.7 0.02 4.4 -1 1 C-0.67 0.67 -0.34 0.34 0 0 Z " fill="#BFB8BA" transform="translate(283,132)"/>
<path d="M0 0 C2.64 0.33 5.28 0.66 8 1 C7.01 1.495 7.01 1.495 6 2 C6.66 3.65 7.32 5.3 8 7 C2.25 5.25 2.25 5.25 0 3 C0 2.01 0 1.02 0 0 Z " fill="#BEB9BA" transform="translate(186,71)"/>
<path d="M0 0 C0 0.66 0 1.32 0 2 C-0.66 2 -1.32 2 -2 2 C-2 2.99 -2 3.98 -2 5 C-2.99 5 -3.98 5 -5 5 C-5.33 4.34 -5.66 3.68 -6 3 C-6.94875 3.515625 -7.8975 4.03125 -8.875 4.5625 C-9.90625 5.036875 -10.9375 5.51125 -12 6 C-12.66 5.67 -13.32 5.34 -14 5 C-8.92206089 1.42236108 -6.15863939 0 0 0 Z " fill="#ABA3A6" transform="translate(107,35)"/>
<path d="M0 0 C1.60875 0.2784375 1.60875 0.2784375 3.25 0.5625 C6.40391546 0.9304568 8.09818492 1.04465343 11 0 C10 3 10 3 8 4 C6.12620395 4.07033769 4.24998898 4.0843022 2.375 4.0625 C1.37210938 4.05347656 0.36921875 4.04445313 -0.6640625 4.03515625 C-1.43492187 4.02355469 -2.20578125 4.01195312 -3 4 C-2.01 2.68 -1.02 1.36 0 0 Z " fill="#9C9798" transform="translate(160,24)"/>
<path d="M0 0 C0.66 0.33 1.32 0.66 2 1 C0.50259067 5.84455959 0.50259067 5.84455959 -1 8 C-4.6875 8.9375 -4.6875 8.9375 -8 9 C-6.73851196 6.47702391 -5.02013114 4.96071552 -3 3 C-2.4225 2.4225 -1.845 1.845 -1.25 1.25 C-0.8375 0.8375 -0.425 0.425 0 0 Z " fill="#B6B2B3" transform="translate(299,199)"/>
<path d="M0 0 C1.32 0 2.64 0 4 0 C4.93423645 3.01031744 5.04449911 3.86650268 4 7 C2.125 6.75 2.125 6.75 0 6 C-1.25 3.9375 -1.25 3.9375 -2 2 C-1.34 1.34 -0.68 0.68 0 0 Z " fill="#ABA0A4" transform="translate(333,171)"/>
<path d="M0 0 C1.77049689 -0.05410687 3.54146849 -0.09284119 5.3125 -0.125 C6.29863281 -0.14820312 7.28476563 -0.17140625 8.30078125 -0.1953125 C11 0 11 0 14 2 C10.26025568 3.86987216 5.53209172 3.30641834 1.5 2.5 C1.005 2.335 0.51 2.17 0 2 C0 1.34 0 0.68 0 0 Z " fill="#ADA5A7" transform="translate(92,27)"/>
<path d="M0 0 C0.99 0.66 1.98 1.32 3 2 C2.34 5.63 1.68 9.26 1 13 C0.01 12.34 -0.98 11.68 -2 11 C-1.34 7.37 -0.68 3.74 0 0 Z " fill="#C0BBBC" transform="translate(255,203)"/>
<path d="M0 0 C0.33 0.99 0.66 1.98 1 3 C-6.75 4.125 -6.75 4.125 -9 3 C-9 2.34 -9 1.68 -9 1 C-6.04335481 -0.4783226 -3.25770263 -0.06032783 0 0 Z " fill="#A79FA1" transform="translate(219,77)"/>
<path d="M0 0 C0.99 0.66 1.98 1.32 3 2 C3 2.66 3 3.32 3 4 C3.66 4 4.32 4 5 4 C6 7 6 7 5 10 C4.34 10 3.68 10 3 10 C1.7109375 8.46875 1.7109375 8.46875 0.375 6.5 C-0.07101562 5.8503125 -0.51703125 5.200625 -0.9765625 4.53125 C-1.48316406 3.77328125 -1.48316406 3.77328125 -2 3 C-1.34 2.67 -0.68 2.34 0 2 C0 1.34 0 0.68 0 0 Z " fill="#C8C5C6" transform="translate(258,93)"/>
<path d="M0 0 C0.66 0.33 1.32 0.66 2 1 C2 1.66 2 2.32 2 3 C1.34 3 0.68 3 0 3 C-0.268125 3.61875 -0.53625 4.2375 -0.8125 4.875 C-2 7 -2 7 -5 9 C-5.99 8.67 -6.98 8.34 -8 8 C-5.36 5.36 -2.72 2.72 0 0 Z " fill="#E1B0B2" transform="translate(154,110)"/>
<path d="M0 0 C4.75 0.75 4.75 0.75 7 3 C6.01 3.99 5.02 4.98 4 6 C1.69 5.01 -0.62 4.02 -3 3 C-2.67 2.34 -2.34 1.68 -2 1 C-1.34 1.33 -0.68 1.66 0 2 C0 1.34 0 0.68 0 0 Z " fill="#ADA5A8" transform="translate(211,33)"/>
<path d="M0 0 C-0.49831724 3.68754757 -1.10067643 5.60490662 -4 8 C-4.66 7.34 -5.32 6.68 -6 6 C-5.8125 4 -5.8125 4 -5 2 C-2 0 -2 0 0 0 Z " fill="#BBB6B8" transform="translate(329,184)"/>
<path d="M0 0 C4.42857143 5.14285714 4.42857143 5.14285714 5 9 C3.0625 8.6875 3.0625 8.6875 1 8 C0.67 7.01 0.34 6.02 0 5 C-0.66 4.67 -1.32 4.34 -2 4 C-1.34 4 -0.68 4 0 4 C0 2.68 0 1.36 0 0 Z " fill="#B7B3B4" transform="translate(271,108)"/>
<path d="M0 0 C1.32 0 2.64 0 4 0 C2.50902342 3.7952131 0.24299151 5.61042731 -3 8 C-3.33 6.35 -3.66 4.7 -4 3 C-2.68 3 -1.36 3 0 3 C0 2.01 0 1.02 0 0 Z " fill="#E1ACAF" transform="translate(139,103)"/>
<path d="M0 0 C0.68578125 0.14566406 1.3715625 0.29132813 2.078125 0.44140625 C6.43738534 1.27479426 10.83593257 1.81555603 15.234375 2.40234375 C16.14703125 2.59957031 17.0596875 2.79679687 18 3 C18.33 3.66 18.66 4.32 19 5 C16.39337756 4.74503693 13.79094478 4.47179707 11.1875 4.1875 C10.08051758 4.08211914 10.08051758 4.08211914 8.95117188 3.97460938 C3.45025238 3.35233341 3.45025238 3.35233341 0.98828125 1.42578125 C0.66214844 0.95527344 0.33601563 0.48476563 0 0 Z " fill="#CC9EA1" transform="translate(116,280)"/>
<path d="M0 0 C0.66 0.33 1.32 0.66 2 1 C0.625 3 0.625 3 -2 5 C-5.3580469 5.35791096 -8.63536357 5.23115823 -12 5 C-12 4.67 -12 4.34 -12 4 C-11.30132812 3.79503906 -10.60265625 3.59007812 -9.8828125 3.37890625 C-8.97273437 3.10949219 -8.06265625 2.84007812 -7.125 2.5625 C-6.22007812 2.29566406 -5.31515625 2.02882812 -4.3828125 1.75390625 C-2.01724619 1.07386174 -2.01724619 1.07386174 0 0 Z " fill="#E0B4B6" transform="translate(146,213)"/>
<path d="M0 0 C1.32 0 2.64 0 4 0 C3.67 1.98 3.34 3.96 3 6 C1.35 5.67 -0.3 5.34 -2 5 C-1.34 3.35 -0.68 1.7 0 0 Z " fill="#A9A3A5" transform="translate(78,20)"/>
<path d="M0 0 C2.475 0.99 2.475 0.99 5 2 C3.35 3.32 1.7 4.64 0 6 C-0.99 5.01 -1.98 4.02 -3 3 C-2.01 2.01 -1.02 1.02 0 0 Z M-6 5 C-3.525 5.495 -3.525 5.495 -1 6 C-2.32 6.33 -3.64 6.66 -5 7 C-5.33 6.34 -5.66 5.68 -6 5 Z " fill="#BAB4B7" transform="translate(77,17)"/>
<path d="M0 0 C-0.6875 1.9375 -0.6875 1.9375 -2 4 C-4.625 4.75 -4.625 4.75 -7 5 C-7 4.01 -7 3.02 -7 2 C-7.66 1.67 -8.32 1.34 -9 1 C-3.375 -1.125 -3.375 -1.125 0 0 Z " fill="#B6AFB3" transform="translate(214,282)"/>
<path d="M0 0 C-1.04874998 2.62187494 -1.64931313 3.79371361 -4.125 5.25 C-4.74375 5.4975 -5.3625 5.745 -6 6 C-6 5.34 -6 4.68 -6 4 C-6.66 3.67 -7.32 3.34 -8 3 C-4.93882432 0.37613513 -4.26826873 0 0 0 Z " fill="#BAB5B6" transform="translate(215,275)"/>
<path d="M0 0 C0.66 0.66 1.32 1.32 2 2 C-6.42857143 5.42857143 -6.42857143 5.42857143 -11 5 C-11.33 4.34 -11.66 3.68 -12 3 C-9.36 3 -6.72 3 -4 3 C-4 2.34 -4 1.68 -4 1 C-2.125 0.375 -2.125 0.375 0 0 Z " fill="#E3B6BA" transform="translate(162,270)"/>
<path d="M0 0 C0.66 0 1.32 0 2 0 C2 1.65 2 3.3 2 5 C1.34 5 0.68 5 0 5 C0 5.66 0 6.32 0 7 C-1.65 6.67 -3.3 6.34 -5 6 C-3.625 4 -3.625 4 -2 2 C-1.34 2 -0.68 2 0 2 C0 1.34 0 0.68 0 0 Z " fill="#C5C2C3" transform="translate(259,250)"/>
<path d="M0 0 C0.99 0.33 1.98 0.66 3 1 C3.33 2.98 3.66 4.96 4 7 C2.35 7.33 0.7 7.66 -1 8 C-0.67 5.36 -0.34 2.72 0 0 Z " fill="#ACA7A9" transform="translate(252,214)"/>
<path d="M0 0 C0.66 0.33 1.32 0.66 2 1 C0.75023244 4.65316671 0.32901247 5.78065836 -3 8 C-3.33 6.02 -3.66 4.04 -4 2 C-2.125 0.9375 -2.125 0.9375 0 0 Z " fill="#ACA6A8" transform="translate(267,206)"/>
<path d="M0 0 C1.98 0 3.96 0 6 0 C6.33 0.66 6.66 1.32 7 2 C6.67 2.66 6.34 3.32 6 4 C2.9375 4.625 2.9375 4.625 0 5 C0 3.33333333 0 1.66666667 0 0 Z " fill="#ABA1A4" transform="translate(239,96)"/>
<path d="M0 0 C-2.88035092 2.24027294 -5.84866512 4.16172132 -9 6 C-9 5.01 -9 4.02 -9 3 C-8.34 3 -7.68 3 -7 3 C-7 2.34 -7 1.68 -7 1 C-7.66 0.67 -8.32 0.34 -9 0 C-5.67465243 -1.10844919 -3.37817425 -0.84454356 0 0 Z " fill="#B7B0B3" transform="translate(114,34)"/>
<path d="M0 0 C2.97 0.495 2.97 0.495 6 1 C6 2.65 6 4.3 6 6 C5.01 6 4.02 6 3 6 C3 5.34 3 4.68 3 4 C1.68 3.67 0.36 3.34 -1 3 C-0.67 2.01 -0.34 1.02 0 0 Z " fill="#9F9497" transform="translate(199,28)"/>
<path d="M0 0 C0.33 0.66 0.66 1.32 1 2 C0.0925 2.144375 -0.815 2.28875 -1.75 2.4375 C-4.21476956 2.86409473 -6.58847107 3.35074221 -9 4 C-9.33 3.01 -9.66 2.02 -10 1 C-6.78548731 -0.60725635 -3.56387464 -0.05748185 0 0 Z " fill="#AA9E9F" transform="translate(141,286)"/>
<path d="M0 0 C2 1 2 1 2.6875 2.8125 C3.02688538 5.18819767 2.72856341 6.73335829 2 9 C1.01 9 0.02 9 -1 9 C-1.125 2.25 -1.125 2.25 0 0 Z " fill="#AFA5A8" transform="translate(288,206)"/>
<path d="M0 0 C0.66 0 1.32 0 2 0 C4.09350689 3.4019487 4.17942163 6.05272412 4 10 C3.01 10 2.02 10 1 10 C0.67 6.7 0.34 3.4 0 0 Z " fill="#ACA6A8" transform="translate(289,150)"/>
<path d="M0 0 C-4.455 2.97 -4.455 2.97 -9 6 C-8 2 -8 2 -7 0 C-4 -1 -4 -1 0 0 Z " fill="#E3B4B7" transform="translate(129,118)"/>
<path d="M0 0 C2.97 0.33 5.94 0.66 9 1 C9 1.66 9 2.32 9 3 C2.9453125 3.9765625 2.9453125 3.9765625 1 4 C0.34 3.34 -0.32 2.68 -1 2 C-0.67 1.34 -0.34 0.68 0 0 Z " fill="#9F9498" transform="translate(180,27)"/>
<path d="M0 0 C1.98 0 3.96 0 6 0 C5.34 1.65 4.68 3.3 4 5 C2.35 5 0.7 5 -1 5 C-0.67 3.35 -0.34 1.7 0 0 Z " fill="#A99CA1" transform="translate(146,288)"/>
<path d="M0 0 C0.33 0 0.66 0 1 0 C1.33 3.3 1.66 6.6 2 10 C1.67 9.34 1.34 8.68 1 8 C0.34 8 -0.32 8 -1 8 C-1.33 8.66 -1.66 9.32 -2 10 C-2.17942163 6.05272412 -2.09350689 3.4019487 0 0 Z " fill="#BFB7BC" transform="translate(296,137)"/>
<path d="M0 0 C2.31 0.33 4.62 0.66 7 1 C7.33 2.65 7.66 4.3 8 6 C6.35 6 4.7 6 3 6 C3 4.68 3 3.36 3 2 C2.01 1.34 1.02 0.68 0 0 Z " fill="#ABA1A3" transform="translate(247,98)"/>
<path d="M0 0 C1.32 0 2.64 0 4 0 C4.66 2.64 5.32 5.28 6 8 C5.01 8 4.02 8 3 8 C2.01 5.36 1.02 2.72 0 0 Z " fill="#A8A0A2" transform="translate(242,71)"/>
<path d="M0 0 C0 0.99 0 1.98 0 3 C-1.98 3.33 -3.96 3.66 -6 4 C-6.33 3.34 -6.66 2.68 -7 2 C-5.26578631 -1.46842738 -3.40984787 -1.13661596 0 0 Z " fill="#BDB3B6" transform="translate(132,45)"/>
<path d="M0 0 C5.75 0.75 5.75 0.75 8 3 C5 5 5 5 2 5 C1.34 3.35 0.68 1.7 0 0 Z " fill="#B7B0B3" transform="translate(125,25)"/>
<path d="M0 0 C2.97 1.98 2.97 1.98 6 4 C5.34 5.32 4.68 6.64 4 8 C3.67 7.34 3.34 6.68 3 6 C1.68 6 0.36 6 -1 6 C-0.67 4.02 -0.34 2.04 0 0 Z " fill="#BDB7B9" transform="translate(304,172)"/>
<path d="M0 0 C2.475 0.495 2.475 0.495 5 1 C5.33 2.65 5.66 4.3 6 6 C4.35 6 2.7 6 1 6 C1.33 5.01 1.66 4.02 2 3 C1.34 2.67 0.68 2.34 0 2 C0 1.34 0 0.68 0 0 Z " fill="#A39C9F" transform="translate(224,74)"/>
<path d="M0 0 C1.65 0.33 3.3 0.66 5 1 C5 1.99 5 2.98 5 4 C6.32 4.33 7.64 4.66 9 5 C7 6 7 6 4.8359375 5.44140625 C4.02382812 5.15136719 3.21171875 4.86132812 2.375 4.5625 C1.55773437 4.27503906 0.74046875 3.98757812 -0.1015625 3.69140625 C-0.72804687 3.46324219 -1.35453125 3.23507813 -2 3 C-1.34 2.01 -0.68 1.02 0 0 Z " fill="#C1BCBC" transform="translate(206,67)"/>
<path d="M0 0 C-1.75 2 -1.75 2 -4 4 C-5.32 4 -6.64 4 -8 4 C-8.33 3.01 -8.66 2.02 -9 1 C-6.04335481 -0.4783226 -3.25770263 -0.06032783 0 0 Z " fill="#AAA2A4" transform="translate(192,63)"/>
<path d="M0 0 C1.9375 0.3125 1.9375 0.3125 4 1 C4.33 1.99 4.66 2.98 5 4 C2.64561267 5.42944945 1.51967567 6.08661261 -1.25 5.625 C-1.8275 5.41875 -2.405 5.2125 -3 5 C-2.01 5 -1.02 5 0 5 C0 3.35 0 1.7 0 0 Z " fill="#B3AEB0" transform="translate(197,34)"/>
<path d="M0 0 C0.33 0.66 0.66 1.32 1 2 C0.01 3.485 0.01 3.485 -1 5 C-4.625 5.1875 -4.625 5.1875 -8 5 C-6.37633534 1.75267068 -3.24612161 1.29844864 0 0 Z " fill="#A79FA2" transform="translate(105,17)"/>
<path d="M0 0 C1.46067199 0.45082469 2.91848032 0.91093537 4.375 1.375 C5.18710938 1.63023437 5.99921875 1.88546875 6.8359375 2.1484375 C9 3 9 3 11 5 C6.37390802 5.3227506 3.71973879 4.84450614 0 2 C0 1.34 0 0.68 0 0 Z " fill="#E5BABC" transform="translate(109,257)"/>
<path d="M0 0 C0.99 0.33 1.98 0.66 3 1 C3 1.66 3 2.32 3 3 C4.32 3.66 5.64 4.32 7 5 C7 6.65 7 8.3 7 10 C4.4000702 7.48972295 2.00908773 5.0136316 0 2 C0 1.34 0 0.68 0 0 Z " fill="#E2B8BA" transform="translate(67,240)"/>
<path d="M0 0 C0.33 0 0.66 0 1 0 C1 3.3 1 6.6 1 10 C-0.32 9.67 -1.64 9.34 -3 9 C-2.01 6.03 -1.02 3.06 0 0 Z " fill="#E2B1B2" transform="translate(150,197)"/>
<path d="M0 0 C0.66 0 1.32 0 2 0 C2 0.66 2 1.32 2 2 C2.99 2.33 3.98 2.66 5 3 C2.03 5.475 2.03 5.475 -1 8 C-1.33 7.01 -1.66 6.02 -2 5 C-1.34 5 -0.68 5 0 5 C0 3.35 0 1.7 0 0 Z " fill="#E3AFB2" transform="translate(131,109)"/>
<path d="M0 0 C0.99 0.33 1.98 0.66 3 1 C2.38722388 3.96175123 1.74627478 5.38058783 0 8 C-0.66 6.02 -1.32 4.04 -2 2 C-1.34 1.34 -0.68 0.68 0 0 Z " fill="#E1ABAE" transform="translate(146,92)"/>
<path d="M0 0 C2.5 2.3125 2.5 2.3125 5 5 C5 5.99 5 6.98 5 8 C3.35 7.67 1.7 7.34 0 7 C0 4.69 0 2.38 0 0 Z " fill="#B6AFB0" transform="translate(246,71)"/>
<path d="M0 0 C2.31 0 4.62 0 7 0 C6.67 0.99 6.34 1.98 6 3 C3.69 3 1.38 3 -1 3 C-0.67 2.01 -0.34 1.02 0 0 Z " fill="#A0999B" transform="translate(171,26)"/>
<path d="M0 0 C0.66 0 1.32 0 2 0 C1.67 3.3 1.34 6.6 1 10 C-2 6 -2 6 -3 4 C-1.625 2 -1.625 2 0 0 Z " fill="#BEBBBC" transform="translate(250,193)"/>
<path d="M0 0 C0.33 0 0.66 0 1 0 C0.88590407 1.45922693 0.75834456 2.91740598 0.625 4.375 C0.55539062 5.18710938 0.48578125 5.99921875 0.4140625 6.8359375 C0 9 0 9 -2 11 C-2 8.03 -2 5.06 -2 2 C-1.34 2 -0.68 2 0 2 C0 1.34 0 0.68 0 0 Z " fill="#A79FA2" transform="translate(296,173)"/>
<path d="M0 0 C1.65 0 3.3 0 5 0 C5.33 1.32 5.66 2.64 6 4 C4.68 4.33 3.36 4.66 2 5 C1.34 3.35 0.68 1.7 0 0 Z " fill="#A79FA2" transform="translate(192,73)"/>
<path d="M0 0 C0.99 0.66 1.98 1.32 3 2 C1.74458443 4.51083114 0.49936512 4.87125446 -2 6 C-3.32 4.68 -4.64 3.36 -6 2 C-3.03 2.495 -3.03 2.495 0 3 C0 2.01 0 1.02 0 0 Z " fill="#C7C1C3" transform="translate(206,55)"/>
<path d="M0 0 C1.32 0.33 2.64 0.66 4 1 C3.67 1.99 3.34 2.98 3 4 C2.01 4 1.02 4 0 4 C0 4.66 0 5.32 0 6 C-1.65 6 -3.3 6 -5 6 C-4.360625 5.38125 -3.72125 4.7625 -3.0625 4.125 C-0.96116416 2.17402388 -0.96116416 2.17402388 0 0 Z " fill="#BCB5B7" transform="translate(106,17)"/>
<path d="M0 0 C0.33 0.99 0.66 1.98 1 3 C-0.98 3.33 -2.96 3.66 -5 4 C-5.33 3.01 -5.66 2.02 -6 1 C-3 0 -3 0 0 0 Z " fill="#E2B0BA" transform="translate(161,238)"/>
<path d="M0 0 C-0.66 2.31 -1.32 4.62 -2 7 C-4 4 -4 4 -4 2 C-4.66 1.67 -5.32 1.34 -6 1 C-4 0 -4 0 0 0 Z " fill="#C9C6C7" transform="translate(277,197)"/>
<path d="M0 0 C0.66 0.66 1.32 1.32 2 2 C1.8125 4.5 1.8125 4.5 1 7 C0.01 7.66 -0.98 8.32 -2 9 C-1.125 2.25 -1.125 2.25 0 0 Z " fill="#E2B9BA" transform="translate(174,156)"/>
<path d="M0 0 C2.56995074 1.28497537 2.90434463 2.49912373 4.125 5.0625 C4.47820312 5.79597656 4.83140625 6.52945313 5.1953125 7.28515625 C5.46085938 7.85105469 5.72640625 8.41695312 6 9 C2.15625 8.2265625 2.15625 8.2265625 0.75 6.1875 C0 4 0 4 0 0 Z " fill="#E1B6B8" transform="translate(168,147)"/>
<path d="M0 0 C1.32 0.66 2.64 1.32 4 2 C3.67 2.66 3.34 3.32 3 4 C-1.47540984 5.26229508 -1.47540984 5.26229508 -4 4 C-2.68 2.68 -1.36 1.36 0 0 Z " fill="#E6ABB1" transform="translate(88,149)"/>
<path d="M0 0 C0.66 0.33 1.32 0.66 2 1 C1.01 1.33 0.02 1.66 -1 2 C-2.20882096 4.00016466 -2.20882096 4.00016466 -3 6 C-3.66 6 -4.32 6 -5 6 C-5 5.34 -5 4.68 -5 4 C-5.66 3.67 -6.32 3.34 -7 3 C-4.69631264 1.93347808 -2.35981813 0.93578995 0 0 Z " fill="#E7B6B9" transform="translate(126,129)"/>
<path d="M0 0 C1.5 1.375 1.5 1.375 3 3 C3 3.66 3 4.32 3 5 C2.34 5 1.68 5 1 5 C0.67 5.66 0.34 6.32 0 7 C-0.99 5.02 -1.98 3.04 -3 1 C-2.01 0.67 -1.02 0.34 0 0 Z " fill="#C7C5C5" transform="translate(276,116)"/>
<path d="M0 0 C2.31 0.66 4.62 1.32 7 2 C4 4 4 4 1 5 C0.01 4.01 -0.98 3.02 -2 2 C-1.34 2 -0.68 2 0 2 C0 1.34 0 0.68 0 0 Z " fill="#C3BBBC" transform="translate(192,24)"/>
<path d="M0 0 C1.98 0 3.96 0 6 0 C6 0.99 6 1.98 6 3 C4.02 3 2.04 3 0 3 C0 2.01 0 1.02 0 0 Z " fill="#DCA4A4" transform="translate(144,281)"/>
<path d="M0 0 C0 0.66 0 1.32 0 2 C-1.98 2.33 -3.96 2.66 -6 3 C-6 2.01 -6 1.02 -6 0 C-3.50907189 -1.24546405 -2.58919267 -0.7767578 0 0 Z " fill="#ADABAB" transform="translate(225,278)"/>
<path d="M0 0 C1.04449911 3.13349732 0.93423645 3.98968256 0 7 C-0.66 7 -1.32 7 -2 7 C-2 6.34 -2 5.68 -2 5 C-2.66 4.67 -3.32 4.34 -4 4 C-2.68 2.68 -1.36 1.36 0 0 Z " fill="#C2BFC0" transform="translate(231,258)"/>
<path d="M0 0 C0.99 0 1.98 0 3 0 C2.25 4.75 2.25 4.75 0 7 C-1.125 2.25 -1.125 2.25 0 0 Z " fill="#E79898" transform="translate(171,247)"/>
<path d="M0 0 C0.99 0.66 1.98 1.32 3 2 C2.67 2.66 2.34 3.32 2 4 C-0.3140622 4.73075648 -2.64828869 5.40138258 -5 6 C-3.63016497 2.83884224 -3.0109362 2.0072908 0 0 Z " fill="#A79EA1" transform="translate(315,196)"/>
<path d="M0 0 C1.65 0 3.3 0 5 0 C4.01 0.495 4.01 0.495 3 1 C3 1.66 3 2.32 3 3 C4.32 3.33 5.64 3.66 7 4 C3.7 3.67 0.4 3.34 -3 3 C-2.01 2.67 -1.02 2.34 0 2 C0 1.34 0 0.68 0 0 Z " fill="#C6C0C2" transform="translate(89,26)"/>
<path d="M0 0 C1.65 0.33 3.3 0.66 5 1 C4.34 2.32 3.68 3.64 3 5 C1.35 4.67 -0.3 4.34 -2 4 C-1.34 2.68 -0.68 1.36 0 0 Z " fill="#B5B1B2" transform="translate(218,268)"/>
<path d="M0 0 C0 0.66 0 1.32 0 2 C-4.38461538 5 -4.38461538 5 -7 5 C-6.67 3.68 -6.34 2.36 -6 1 C-3.92446352 0.4465236 -2.15634036 0 0 0 Z " fill="#A9A4A5" transform="translate(243,267)"/>
<path d="M0 0 C0 3 0 3 -1 6 C-2.98 6 -4.96 6 -7 6 C-6.21625 5.38125 -5.4325 4.7625 -4.625 4.125 C-2.03162353 2.10141339 -2.03162353 2.10141339 0 0 Z " fill="#E0B4B4" transform="translate(164,257)"/>
<path d="M0 0 C0 1.32 0 2.64 0 4 C-1.98 4.99 -1.98 4.99 -4 6 C-4.33 5.01 -4.66 4.02 -5 3 C-2.25 0 -2.25 0 0 0 Z " fill="#AEA7AA" transform="translate(236,257)"/>
<path d="M0 0 C0.99 0 1.98 0 3 0 C3.33 1.98 3.66 3.96 4 6 C3.01 5.67 2.02 5.34 1 5 C0.67 3.35 0.34 1.7 0 0 Z " fill="#ADA7A9" transform="translate(286,108)"/>
<path d="M0 0 C1.32 0.33 2.64 0.66 4 1 C3.34 1 2.68 1 2 1 C2 2.32 2 3.64 2 5 C0.68 4.67 -0.64 4.34 -2 4 C-1.34 2.68 -0.68 1.36 0 0 Z " fill="#B8B4B4" transform="translate(162,64)"/>
<path d="M0 0 C4.75 0.875 4.75 0.875 7 2 C6.67 3.32 6.34 4.64 6 6 C3.97945196 4.35830472 1.97956942 2.69088222 0 1 C0 0.67 0 0.34 0 0 Z " fill="#E0B0B5" transform="translate(82,260)"/>
<path d="M0 0 C0.66 0 1.32 0 2 0 C1.67 1.65 1.34 3.3 1 5 C0.01 5 -0.98 5 -2 5 C-1.125 1.125 -1.125 1.125 0 0 Z " fill="#B0ACAD" transform="translate(277,230)"/>
<path d="M0 0 C1.32 0 2.64 0 4 0 C2.25 4.875 2.25 4.875 0 6 C0 5.34 0 4.68 0 4 C-0.66 3.67 -1.32 3.34 -2 3 C-1.34 2.01 -0.68 1.02 0 0 Z " fill="#C7C1C2" transform="translate(279,226)"/>
<path d="M0 0 C-0.3125 1.875 -0.3125 1.875 -1 4 C-1.99 4.66 -2.98 5.32 -4 6 C-4 5.34 -4 4.68 -4 4 C-4.66 3.67 -5.32 3.34 -6 3 C-2.25 0 -2.25 0 0 0 Z " fill="#B5B0B2" transform="translate(260,215)"/>
<path d="M0 0 C1.98 0 3.96 0 6 0 C5.34 1.32 4.68 2.64 4 4 C2.35 3.67 0.7 3.34 -1 3 C-0.67 2.01 -0.34 1.02 0 0 Z " fill="#ADA2A8" transform="translate(325,175)"/>
<path d="M0 0 C0.6875 1.75 0.6875 1.75 1 4 C-0.4375 6.25 -0.4375 6.25 -2 8 C-2.66 7.01 -3.32 6.02 -4 5 C-3.34 4.01 -2.68 3.02 -2 2 C-1.34 2 -0.68 2 0 2 C0 1.34 0 0.68 0 0 Z " fill="#E2B0B4" transform="translate(78,102)"/>
<path d="M0 0 C0.33 0.99 0.66 1.98 1 3 C1.66 3.33 2.32 3.66 3 4 C1.35 4.66 -0.3 5.32 -2 6 C-2.33 5.01 -2.66 4.02 -3 3 C-2.01 2.01 -1.02 1.02 0 0 Z " fill="#BBB3B6" transform="translate(101,37)"/>
<path d="M0 0 C2.31 0 4.62 0 7 0 C7 0.66 7 1.32 7 2 C4.69 2.33 2.38 2.66 0 3 C0 2.01 0 1.02 0 0 Z " fill="#9F9498" transform="translate(147,27)"/>
</svg>
