<svg xmlns="http://www.w3.org/2000/svg" version="1.1" xmlns:xlink="http://www.w3.org/1999/xlink" viewBox="0 0 7.84237060546875 8.40231389124154"><g transform="matrix(0.8571428571428572,0,0,0.8571428571428572,1.1203386579241066,6.37412214147652)"><rect width="9.709375658819665" height="9.709375658819665" x="-1.58703341046452" y="-7.38981389124154" fill="#ffffff"></rect><g transform="matrix(1,0,0,1,0,0)" clip-path="url(#SvgjsClipPath104659)"><g clip-path="url(#SvgjsClipPath10465480458a68-efe1-4be4-a4ca-0693180bab8f)"><path d=" M 5.759915002481317 -2.843808941864295 C 5.698852958890022 -2.8097380914546597 5.634693565261488 -2.777879633928767 5.580711178898168 -2.7349592119841613 C 5.503719906543927 -2.673897168392866 5.433365812840914 -2.6035430746898527 5.3612418048309065 -2.53584385244733 C 5.309029332774582 -2.486286251851496 5.259029253601999 -2.4345162583719198 5.207701738699171 -2.384073700622589 C 5.203719431508435 -2.419914465339219 5.208586695852668 -2.452657880018609 5.22009113884813 -2.482746423237508 C 5.259029253601999 -2.581861624429175 5.29752488977912 -2.680976825620842 5.340887790300474 -2.778764591082264 C 5.364781633444895 -2.8318620202920854 5.380710862207842 -2.885844406655404 5.381595819361338 -2.9438091002094597 C 5.382038297938087 -2.9628356790096455 5.374516162133363 -2.9818622578098317 5.367878983482134 -3.0146056724892216 C 5.34796744752845 -2.9898268721913044 5.334693090225996 -2.9778799506190947 5.326728475844522 -2.9632781575863936 C 5.2674363465602205 -2.8522160348225167 5.226728317499357 -2.7349592119841613 5.21389643877365 -2.6084103390340863 C 5.210356610159663 -2.5756669243546964 5.201949517201442 -2.542481031098558 5.1975247314339565 -2.5092951378424195 C 5.179383109787267 -2.3699143861666374 5.117436109042474 -2.2535425204817785 5.017878429274059 -2.156639712173854 C 5.0081439005855914 -2.1477901406388833 5.002834157664609 -2.134958261913177 4.994869543283137 -2.1252237332247095 C 4.984692536017921 -2.112834333075751 4.9740730501759565 -2.101772368657038 4.952834078492027 -2.0778785255126193 C 5.022745693618293 -2.2747814921657077 5.066551072716395 -2.459295058669838 5.091772351591061 -2.6482334109414536 C 5.134250294958918 -2.961508243279401 5.1395600378799005 -3.2752255541940976 5.084692694363085 -3.5862879936483023 C 5.053719193990689 -3.7628369457709594 5.005489029125101 -3.937173505009874 4.930710149654602 -4.101333056983572 C 4.828055119848947 -4.330094481162554 4.692656675363902 -4.539386847964601 4.530709516273945 -4.730095114543211 C 4.320089713741652 -4.978768074675875 4.064337096381012 -5.174786084175467 3.787787985913191 -5.342927943339902 C 3.6926550919122603 -5.400892636893957 3.590885019260102 -5.4495652803362935 3.4935397323754294 -5.5039901452763615 C 3.468760932077512 -5.517706981155565 3.441769738895853 -5.532308774188266 3.4253980315561576 -5.553547745872194 C 3.367875816578851 -5.630096539649688 3.3143359087922803 -5.710185162041168 3.2581411295452196 -5.788061391548907 C 3.215663186177362 -5.846468563679711 3.1749551571164987 -5.907530607271005 3.125840035097414 -5.960628036480827 C 3.0833620917295566 -6.006645808462673 3.0351319268639685 -6.050451187560776 2.9705300546586852 -6.082752123663417 C 2.9714150118121827 -5.992928972583469 3.020087655254519 -5.93894658622015 3.072300127310843 -5.888061549894071 C 3.116990463562443 -5.844256170795968 3.166548064158277 -5.806203013195596 3.211680878986625 -5.762840112674241 C 3.2723004440011714 -5.7044329405434375 3.3315925732854725 -5.64425585410564 3.3758404309603236 -5.561954838830417 C 3.2820349726896385 -5.596910646393549 3.197521564530673 -5.629211582496191 3.1121231992182095 -5.659300125715089 C 3.028937226789489 -5.68894619035724 2.9466362115142655 -5.725229433650618 2.861237846201802 -5.7438135338740555 C 2.701945558572337 -5.777884384283691 2.540883356635878 -5.770804727055714 2.3802636332761677 -5.7464684053345465 C 2.365219361666718 -5.744256012450804 2.351502525787515 -5.733194048032091 2.32893611837334 -5.722574562190127 C 2.477608920160841 -5.650893032756867 2.6200870218738626 -5.629654061072939 2.769202302238112 -5.673459440171042 C 2.851945796090084 -5.697353283315461 2.932476897058313 -5.698680719045707 3.0125655194497942 -5.663282432905826 C 3.03159209824998 -5.654875339947604 3.0523885913571607 -5.65000807560337 3.0723001273108435 -5.64425585410564 C 3.1846896858049663 -5.607972610812261 3.293981894261849 -5.562839795983914 3.4001767526814928 -5.510627323927588 C 3.391769659723271 -5.5070874953136 3.384690002495295 -5.505760059583356 3.3784953024208155 -5.507972452467097 C 3.137344478092875 -5.589388510588824 2.889556475113708 -5.63230893253343 2.6355737720600607 -5.627884146765945 C 2.5112372919937287 -5.626114232458951 2.3869008119273962 -5.614609789463489 2.263449289014561 -5.603105346468028 C 2.1838031451998283 -5.596025689240052 2.104599479961844 -5.5818663747840995 2.0360153005658246 -5.573016803249129 C 1.903714206118019 -5.634078846840424 1.7842449903959203 -5.692928497547976 1.6621209032133304 -5.7438135338740555 C 1.5174304086165664 -5.804433098888602 1.3643328210615806 -5.811070277539829 1.2099077977763493 -5.790716263009398 C 1.1913236975529116 -5.788061391548907 1.1678723329852405 -5.788946348702404 1.1607926757572642 -5.754875498292768 C 1.4293771718436123 -5.7035479833899405 1.7050413251579362 -5.692043540394479 1.9687585569000507 -5.573459281825878 C 1.9422098422951397 -5.56991945321189 1.9271655706856907 -5.565937146021152 1.9125637776529893 -5.565937146021152 C 1.7045988465811879 -5.565494667444405 1.4975188726628834 -5.5774415890166145 1.291323855898076 -5.604875260775022 C 1.2130051478135893 -5.615494746616986 1.1453059255710665 -5.638503632607909 1.087341232017011 -5.691158583240982 C 0.9793764592903738 -5.7885038701256555 0.8532700649170474 -5.845141127949465 0.7076946131667863 -5.85266326375419 C 0.6939777772875824 -5.853548220907687 0.6802609414083785 -5.850450870870447 0.6523847910732221 -5.847353520833208 C 0.6829158128688695 -5.8216897633817934 0.7001724773620617 -5.802663184581608 0.7218539276227388 -5.7893888272791525 C 0.7793761426000456 -5.753990541139271 0.8368983575773523 -5.716822340692396 0.8975179225918988 -5.688503711780491 C 0.9944207308998233 -5.643813375528891 1.0904385820542508 -5.5964681678168 1.1997307905111336 -5.58761859628183 C 1.2691999270606504 -5.5818663747840995 1.338669063610167 -5.572574324672381 1.4085806787364321 -5.564167231714159 C 1.4930940868953984 -5.554432703025691 1.5776074950543644 -5.544255695760476 1.6709704747483007 -5.5336362099185115 C 1.6329173171479285 -5.514609631118326 1.6041562096592752 -5.496910488048385 1.5727402307101308 -5.48629100220642 C 1.4749524652487092 -5.452662630373533 1.3749523069035452 -5.423016565731383 1.2771645414421235 -5.38806075816825 C 1.2262795051160444 -5.37036161509831 1.1776068616737079 -5.345140336223645 1.1293766968081198 -5.320361535925728 C 1.103712939356706 -5.30797213577677 1.0851288391332685 -5.2867331640928406 1.0798190962122864 -5.251777356529708 C 1.0935359320914904 -5.249564963645966 1.1032704607799575 -5.246025135031977 1.112120032314928 -5.247795049338971 C 1.2492883911069672 -5.275671199674128 1.3767222212105392 -5.3252288002699615 1.4917666511651528 -5.404432465507945 C 1.5107932299653388 -5.417706822810401 1.5293773301887765 -5.431866137266353 1.5501738232959565 -5.442485623108317 C 1.612563302617497 -5.473901602057462 1.675395260515786 -5.503990145276361 1.7461918327955483 -5.538503474262745 C 1.9581390710580864 -5.52522911696029 2.1762810093951037 -5.553990224448943 2.4037149978438395 -5.589830989165573 C 2.3687591902807075 -5.53407868849526 2.337785689908311 -5.492928180857648 2.279820996354256 -5.476556473517953 C 2.224511174260692 -5.461512201908503 2.170528787897373 -5.442043144531569 2.1174313586875515 -5.420804172847641 C 2.069643672398712 -5.401335115470705 2.022298464686621 -5.379653665210029 1.978493085588518 -5.352662472028369 C 1.9324753136066726 -5.323901364539716 1.898404463197037 -5.2823083783253555 1.8811477987038447 -5.220361377580564 C 1.9015018132342765 -5.220803856157312 1.9152186491134806 -5.217264027543324 1.9249531778019477 -5.221246334734061 C 2.0090241073841653 -5.256644620873942 2.0961923870036223 -5.2814234211718585 2.174068616511361 -5.330981021767692 C 2.2612368961308187 -5.385848365284508 2.336900732754814 -5.4513351946432875 2.3975202977693604 -5.534963645648757 C 2.4284937981417567 -5.5783265461701115 2.466989434318877 -5.603547825044776 2.52274173498919 -5.595583210663303 C 2.5329187422544055 -5.594255774933058 2.54353822809637 -5.598238082123794 2.5541577139383342 -5.597353124970297 C 2.6532729151300014 -5.592485860626064 2.7532730734751656 -5.58761859628183 2.8523882746668328 -5.582308853360848 C 2.843981181708611 -5.5774415890166145 2.8351316101736406 -5.572574324672381 2.824069645754928 -5.566379624597902 C 2.833804174443395 -5.555760138755937 2.838671438787629 -5.549565438681458 2.844866138862108 -5.545140652913973 C 3.029822183942987 -5.412397079889418 3.2364596792845424 -5.357972214949351 3.463008710579782 -5.3725740079820525 C 3.535575197166538 -5.377441272326286 3.6107965552137853 -5.38230853667052 3.6776108203028106 -5.353989907758614 C 3.7585843998477886 -5.318591621618734 3.8369031079322755 -5.275671199674128 3.9107970302492774 -5.227883513385288 C 4.171416911954152 -5.061069089951099 4.398850900402888 -4.857971423223531 4.589116688404749 -4.6123958131281055 C 4.790444440825322 -4.352660888576728 4.935134935422086 -4.0632798993832004 5.020090822157801 -3.7473501955847617 C 5.0546041511441855 -3.617703972597447 5.066993551293144 -3.481863049535653 5.082037822902593 -3.3477920407808535 C 5.0984095302422885 -3.1960218889561127 5.0948697016282996 -3.0429243014011274 5.081595344325844 -2.8893842352693935 C 5.045312101032467 -3.126552752406597 4.980710228827183 -3.355314176585578 4.894426906361223 -3.5725711577690986 C 4.907701263663678 -3.6141641439834586 4.920090663812637 -3.647792515816346 4.930267671077853 -3.6827483233794784 C 4.947966814147794 -3.7420404526637796 4.943542028380308 -3.802660017678326 4.927170321040613 -3.8592972755021355 C 4.890002120593738 -3.985403669875462 4.82407281265821 -4.097350749792836 4.745754104573723 -4.202218172482233 C 4.736019575885256 -4.215050051207941 4.720532825699058 -4.223457144166162 4.703718639782614 -4.2367315014686175 C 4.696638982554638 -4.219917315552174 4.691771718210404 -4.211067744017204 4.689116846749913 -4.2017756939054856 C 4.670532746526476 -4.116819807169771 4.702391204052368 -4.049120584927248 4.7603558976064235 -3.990713412796444 C 4.809471019625509 -3.9407133336238616 4.857701184491097 -3.889828297297783 4.900179127858954 -3.8455804396229314 C 4.911241092277667 -3.6778810590352444 4.911241092277667 -3.6756686661515023 4.873630413254044 -3.6300933727464058 C 4.820090505467474 -3.7256687453240844 4.7683205119878975 -3.824341467939003 4.711683254164088 -3.9199168405166818 C 4.624957453121379 -4.0659347708436915 4.521417466162227 -4.199563301021742 4.39840842182614 -4.317262602436847 C 4.348850821230306 -4.36416533157219 4.315222449397419 -4.420802589396 4.293983477713491 -4.487616854485025 C 4.263452455917843 -4.581422312755709 4.225841776894219 -4.671687942412406 4.1656646904564205 -4.752219043380636 C 4.100177861097642 -4.840714758730339 4.02008923870616 -4.911511331010101 3.931593523356457 -4.977440638945629 C 3.9161067731702595 -4.925228166889305 3.9205315589377445 -4.891157316479669 3.948407709272901 -4.842042194460585 C 3.9860183882965243 -4.774785450794811 4.042213167543586 -4.724342893045479 4.101505296827886 -4.676997685333388 C 4.14796554738648 -4.639829484886514 4.193983319368326 -4.60221880586289 4.235576305582686 -4.5685904340300025 C 4.2541604058061235 -4.515493004820181 4.269647155992321 -4.469917711415084 4.286461341908765 -4.422130025126244 C 4.234691348429189 -4.458855746996371 4.187346140717098 -4.49513899028975 4.137788540121264 -4.528767362122636 C 3.997080352715237 -4.623900256123568 3.8395579793927666 -4.687174692598604 3.6824780846470437 -4.750006650496894 C 3.663451505846857 -4.757528786301618 3.6408850984326837 -4.764165964952846 3.628495698283725 -4.7787677579855465 C 3.5674336546924303 -4.84912185168856 3.5068140896778837 -4.920360902545071 3.449734353277325 -4.994254824862073 C 3.372743080923084 -5.094254983207237 3.284689844150129 -5.181423262826694 3.178494985730486 -5.249564963645965 C 3.164778149851282 -5.258414535180935 3.1479639639348385 -5.262396842371672 3.124070120790419 -5.272573849636888 C 3.1280524279811557 -5.247795049338971 3.12672499225091 -5.229653427692282 3.1342471280556348 -5.219033941850318 C 3.1612383212372936 -5.180980784249946 3.187787035842205 -5.141157712342579 3.221415407675092 -5.110184211970184 C 3.2674331796569374 -5.068148747179075 3.320530608866759 -5.033635418192691 3.370088209462593 -4.996024739169067 C 3.445752046086588 -4.938060045615011 3.5169910969430993 -4.874785609139974 3.5762832262274 -4.793812029594996 C 3.418318374328181 -4.834077580079111 3.2661057439266923 -4.873458173409729 3.113008156371706 -4.911068852433353 C 3.07318508446434 -4.92080338112182 3.0315920982499795 -4.924785688312556 2.9904415906123676 -4.929210474080041 C 2.8678750248530296 -4.9424848313824965 2.747078373400685 -4.923458252582311 2.6262817219483408 -4.904874152358873 C 2.5930958286922023 -4.8995644094378905 2.552830278208088 -4.8995644094378905 2.528936435063668 -4.8531041588792965 C 2.577609078506004 -4.841157237307087 2.6227418933343527 -4.830980230041871 2.6674322295859527 -4.8199182656231585 C 2.7373438447122176 -4.803104079706715 2.8059280241082374 -4.802661601129966 2.8753971606577546 -4.825228008544141 C 2.9271671541373303 -4.842484673037332 2.981149540500649 -4.8539891160327935 3.0333620125569736 -4.869033387642244 C 3.0745125201945855 -4.880980309214453 3.1147780706787005 -4.882307744944699 3.155928578316312 -4.871688259102735 C 3.2621234367359553 -4.843369630190829 3.3692032523090956 -4.8216881799301525 3.4731857178449963 -4.789387243827511 C 3.5957522836043347 -4.75089160765039 3.7152214993264336 -4.703988878515047 3.8492925080812332 -4.655758713649459 C 3.826283622090311 -4.650006492151729 3.818761486285586 -4.646024184960993 3.8112393504808613 -4.646024184960993 C 3.646637319930414 -4.6429268349237525 3.485575117993955 -4.669033070951915 3.3253978732109926 -4.705758792822042 C 3.2342472864007985 -4.72699776450597 3.1426542210138564 -4.746024343306157 3.0506186770501658 -4.764165964952846 C 3.0413266269384467 -4.766378357836588 3.030264662519734 -4.75974117918536 3.0200876552545184 -4.757086307724869 C 3.0227425267150094 -4.747351779036402 3.0227425267150094 -4.744254428999162 3.024069962445255 -4.742926993268917 C 3.029822183942986 -4.737617250347935 3.036016884017465 -4.732749986003701 3.0422115840919437 -4.7287676788129644 C 3.1908843858794445 -4.638944527733016 3.352389066392652 -4.593369234327919 3.525398189901321 -4.597351541518655 C 3.6515045842746465 -4.6000064129791465 3.7780534572247215 -4.615050684588596 3.9046023301747965 -4.623900256123567 C 4.160797426112186 -4.511510697629444 4.363010135686257 -4.33407678835329 4.533806866311183 -4.116377328593021 C 4.4692049941059 -4.166377407765603 4.394426114635401 -4.1938110795240116 4.319204756588155 -4.219032358398676 C 4.2453108342711525 -4.243368680119845 4.17141691195415 -4.269474916148007 4.097965468213898 -4.294696195022673 C 4.0342485531621115 -4.316820123860098 3.9705316381103257 -4.339829009851021 3.9068147230585395 -4.36106798153495 C 3.8944253229095813 -4.365050288725686 3.8798235298768806 -4.360625502958201 3.860796951076694 -4.359740545804704 C 3.9329209590867014 -4.276112094799235 4.0351335103156085 -4.213280136900946 4.142213325888749 -4.1902712509100235 C 4.2103550267080205 -4.175669457877323 4.2802666418342845 -4.162395100574867 4.35017825696055 -4.157970314807382 C 4.405488079054114 -4.154430486193394 4.45150585103596 -4.136288864546705 4.49309883725032 -4.1035454498673145 C 4.5851343812140115 -4.031421441857307 4.670532746526475 -3.95310273377282 4.722302740006051 -3.845137961046183 C 4.740001883075991 -3.8075272820225594 4.761683333336669 -3.7716865173059295 4.779824954983358 -3.7345183168590546 C 4.854161355877109 -3.585845515071554 4.92186057811963 -3.433632884670065 4.9607986928734995 -3.2708007684266116 C 4.961241171450249 -3.2681458969661206 4.961683650026997 -3.26549102550563 4.962126128603746 -3.2623936754683904 C 4.978940314520188 -3.2154909463330474 4.992214671822644 -3.1672607814674594 5.001506721934363 -3.1185881380251232 C 5.013896122083322 -3.0672606231222956 5.029825350846268 -3.0159331082194685 5.035577572343999 -2.9637206361631434 C 5.05593158687443 -2.7831893768497498 5.063011244102407 -2.6026581175363566 5.020975779311297 -2.4221268582229625 C 4.975400485906201 -2.2265513273001196 4.917878270928894 -2.0358430607215103 4.816550676853484 -1.8606215443290992 C 4.697966418284882 -1.6553114847177888 4.5430989164229025 -1.4809749254788738 4.371859707221228 -1.3199127235424157 C 4.274956898913303 -1.2287621367322217 4.1718593905309 -1.1460186428802492 4.063452139227514 -1.07123976340975 L 4.061682224920519 -1.0699123276795053 L 4.059469832036777 -1.0681424133725104 C 4.059469832036777 -1.0681424133725104 4.055045046269292 -1.0650450633352708 4.051947696232052 -1.0632751490282768 C 4.047080431887819 -1.0597353204142888 4.040443253236591 -1.0553105346468028 4.0324786388551175 -1.0500007917258216 C 4.028496331664381 -1.0473459202653306 4.024071545896896 -1.0446910488048387 4.020089238706159 -1.0420361773443485 C 3.8400004579695146 -0.9221244830455015 3.6444249270466713 -0.825221674737576 3.439999824588858 -0.7539826238810647 C 3.3886723096860303 -0.735841002234376 3.336459837629705 -0.7199117734714298 3.2838048869966325 -0.7061949375922261 C 3.2771677083454045 -0.704425023285232 3.2572561723917213 -0.6951329731735125 3.2519464294707396 -0.7013276732479916 C 3.243539336512518 -0.7115046805132081 3.2616809581592068 -0.7150445091271962 3.2674331796569374 -0.7172569020109387 C 3.290884544224608 -0.7261064735459088 3.313893430215532 -0.7367259593878739 3.336459837629705 -0.7477879238065857 C 3.4271679458631508 -0.7929207386349342 3.5090264825616257 -0.8539827822262298 3.5877876692228607 -0.9176996972780156 C 3.6298231340139697 -0.9517705476876506 3.6709736416515812 -0.9867263552507834 3.712124149289193 -1.0212396842371678 C 3.857699601039455 -1.1424788142662603 4.008584795710698 -1.2588506799511192 4.173629304837894 -1.3513287024915588 C 4.233806391275691 -1.3849570743244461 4.2961958705972325 -1.4159305746968416 4.349735778383803 -1.4597359537949446 C 4.403275686170373 -1.5035413328930476 4.448408500998721 -1.5615060264471028 4.4599129439941825 -1.6296477272663736 C 4.356815435611779 -1.635399948764105 4.274514420336555 -1.5473467119911506 4.211682462438265 -1.465488175292676 C 4.148850504539977 -1.3831871600174521 4.075841539376473 -1.291151616053761 3.9727440309940683 -1.283187001672288 C 4.068761882148496 -1.4177004890038365 4.147965547386479 -1.5641608979075938 4.2077001552475295 -1.7181434426160767 C 4.228939126931458 -1.7725683075561447 4.247523227154896 -1.828763086803205 4.278054248950543 -1.878763165975787 C 4.336018942504598 -1.9743385385534662 4.430266879352032 -2.0411528036424924 4.516992680394741 -2.111506897345506 C 4.60371848143745 -2.1818609910485196 4.688674368173164 -2.2659319206307367 4.715223082778075 -2.3743391719341225 C 4.660798217838008 -2.3743391719341225 4.615665403009659 -2.3340736214500084 4.580267116869778 -2.292923113812396 C 4.480266958524614 -2.176108769550788 4.412125257705343 -2.0278784463400363 4.285133906178519 -1.9415951238740758 C 4.331151678160365 -2.103099804387284 4.376726971565462 -2.2654894420539886 4.393098678905156 -2.432746344064926 C 4.409470386244852 -2.5995607674991157 4.395753550365648 -2.773012369584533 4.32672689239288 -2.9261099571395195 C 4.277611770373794 -2.8548709062830087 4.274514420336555 -2.7610654480123236 4.288231256215759 -2.6756670826998605 C 4.301948092094963 -2.590268717387398 4.331151678160365 -2.5075252235354255 4.341328685425581 -2.421684379646214 C 4.370089792914234 -2.1707990266298065 4.233806391275691 -1.9345154666461006 4.1630098189959295 -1.6920372065879148 C 4.153275290307462 -1.9513296525625439 4.199293062289307 -2.209294662806928 4.245310834271153 -2.4646048015908195 C 4.175399219144888 -2.3915958364273147 4.135576147237521 -2.293365592389145 4.119646918474575 -2.1933654340439808 C 4.10327521113488 -2.093365275698817 4.108584954055862 -1.9915952030466588 4.11787700416758 -1.8907100875479976 C 4.12407170424206 -1.8216834295752289 4.132478797200282 -1.752656771602461 4.126726575702551 -1.6840725922064417 C 4.116107089860587 -1.5522139763353842 4.055045046269292 -1.4283199748458006 3.9749564238778103 -1.323452552156403 C 3.8948678014863294 -1.2181426508902566 3.795752600294662 -1.1296469355405536 3.6970798776797436 -1.041593698767599 C 3.79044285737368 -1.240266579727682 3.858142079616203 -1.450443903683226 3.8988501086770664 -1.6663734491365005 C 3.821416357746076 -1.6008866197777207 3.766549014229261 -1.5088510758140297 3.746194999698829 -1.4097358746223634 C 3.730265770935882 -1.3336295594216185 3.734248078126619 -1.2539834156068865 3.7152214993264323 -1.1783195789828893 C 3.687787827568025 -1.0699123276795044 3.613893905251023 -0.9783192622925618 3.5267256256315656 -0.908407647166297 C 3.4329201673608805 -0.8336287676957985 3.3218580445970036 -0.7783189456022344 3.2147782290238633 -0.7261064735459088 C 3.0298221839429846 -0.6358408438892127 2.8280519529456627 -0.6393806725032007 2.627609157678586 -0.6389381939264522 C 2.4386708054069706 -0.6384957153497028 2.2497324531353553 -0.6628320370708716 2.0674312795149676 -0.7132745948202022 C 1.9829178713560016 -0.7367259593878739 1.9001743775040292 -0.7668145026067723 1.8200857551125484 -0.8008853530164091 C 1.6634483389435746 -0.8247791961608293 1.5169879300398166 -0.873451839603165 1.3824744427082682 -0.9415935404224367 C 1.5984039881615428 -0.791150824327941 1.8399972910662314 -0.6783187872570702 2.096192387003621 -0.6146018722052853 C 2.520971820682194 -0.5088494923623896 2.976282276156415 -0.534513249813803 3.386017438225539 -0.6893807516757837 C 3.4218582029421682 -0.7030975875549874 3.4568140105053007 -0.7190268163179336 3.49265477522193 -0.7331861307738858 C 3.5749557904971536 -0.7650445882997783 3.6554868914653835 -0.8008853530164091 3.7338055995498705 -0.8411509035005231 C 3.7638941427687698 -0.8561951751099723 3.7939826859876686 -0.8725668824496671 3.82318627205307 -0.8889385897893627 C 4.053275131962297 -1.0163724198929343 4.264337413071338 -1.170354964601417 4.4519483296127085 -1.3575234025660379 C 4.601506088553705 -1.5070811615070365 4.736462054462003 -1.667700884866747 4.842656912881647 -1.8517719727941282 C 4.88026759190527 -1.917258802152909 4.924515449580121 -1.9783208457442036 4.968763307254973 -2.0393828893354984 C 4.983365100287673 -2.0588519467124327 5.00504655054835 -2.075666132628876 5.027170479385775 -2.0867280970475885 C 5.104161751740016 -2.1243387760712125 5.181595502671007 -2.1606220193645904 5.259471732178746 -2.195135348350975 C 5.443100341529378 -2.2765514064727013 5.59177314331688 -2.3973480579250457 5.692658258815541 -2.5730120528942053 C 5.69885295889002 -2.584074017312918 5.699295437466769 -2.598675810345619 5.705932616117996 -2.626994439257524 C 5.680268858666582 -2.6097377747643318 5.6674369799408755 -2.6026581175363552 5.656817494098911 -2.5933660674246366 C 5.611242200693813 -2.554427952670767 5.566551864442214 -2.514604880763401 5.521419049613866 -2.4756667660095317 C 5.39796752670103 -2.367701993282895 5.274958482364943 -2.2597372205562576 5.132037902075173 -2.176551248127536 C 5.108586537507502 -2.163276890825081 5.087347565823573 -2.1486750977923803 5.051506801106945 -2.1486750977923803 C 5.162568923870822 -2.2955779852728866 5.286020446783657 -2.4177020724554765 5.408144533966246 -2.5420385525218094 C 5.513896913809141 -2.6495608466716982 5.633808608107988 -2.7230122904119516 5.78513628135598 -2.7407114334818914 C 5.787791152816472 -2.7411539120586403 5.790446024276963 -2.742038869212137 5.7926584171607045 -2.7429238263656335 C 5.872747039552187 -2.755755705091341 5.937791390334218 -2.797791169882449 5.997968476772016 -2.849118684785277 C 6.021862319916435 -2.8690302207389604 6.045313684484107 -2.889384235269392 6.067437613321532 -2.911508164106818 C 6.077172142009999 -2.9203577356417885 6.082481884930981 -2.932747135790746 6.098411113693928 -2.955756021781669 C 5.971862240743853 -2.928322350023261 5.861242596556725 -2.9004461996881052 5.760799959634812 -2.844693899017792 Z M 2.861237846201803 -5.581423896207349 C 2.907698096760397 -5.57832654617011 2.954600825895739 -5.576999110439864 3.0006185978775846 -5.569919453211888 C 3.1860171215352118 -5.542485781453481 3.364778466541612 -5.491600745127402 3.5435398115480106 -5.415494429926657 C 3.4320352102073852 -5.402220072624202 3.1784949857304867 -5.46505203052249 2.8612378462018024 -5.581423896207349 Z" fill="#aba0a4" transform="matrix(1,0,0,1,0,0)" fill-rule="nonzero"></path></g><g clip-path="url(#SvgjsClipPath10465480458a68-efe1-4be4-a4ca-0693180bab8f)"><path d=" M 2.747520851977435 -1.5181431259257492 C 2.658140179474235 -1.6088512341591938 2.5554851496685798 -1.6278778129593796 2.4320336267557443 -1.572125512289067 C 2.45415755559317 -1.566815769368084 2.4709717415096137 -1.5601785907168573 2.487785927426057 -1.5592936335633603 C 2.6174321504133715 -1.5526564549121318 2.693538465614116 -1.4274350176923027 2.6484056507857674 -1.3070808448167064 C 2.5948657429991973 -1.1654877002571817 2.4143344836858036 -1.0955760851309178 2.275838689163519 -1.0840716421354557 C 2.0081391502306682 -1.060620277567784 1.7329174754930925 -1.1393814642290199 1.5015011798536197 -1.2712400801000774 C 1.255483091181446 -1.4115057889293565 0.8023850285909679 -1.8411524869521632 1.1076952465474426 -2.128763561838696 C 1.2815893272096086 -2.2929231138123947 1.5253950229980393 -2.2314185916443514 1.7214130324976311 -2.149560054945877 C 1.790439690470399 -2.1207989474572226 1.8581389127129218 -2.088055532777833 1.9276080492624388 -2.0601793824426773 C 1.9908824857374763 -2.034515624991263 2.055041879366011 -2.010179303270095 2.1253959730690246 -2.0092943461165973 C 2.199289895386026 -2.0084093889631003 2.2568121103633327 -2.0376129750285026 2.291325439349717 -2.102657325810534 C 2.3063697109591663 -2.1314184332991872 2.3130068896103944 -2.165489283708823 2.319644068261622 -2.197790219811465 C 2.3253962897593525 -2.2278787630303643 2.3262812469128495 -2.2584097848260116 2.3267237254895976 -2.288940806621659 C 2.328051161219843 -2.3469055001757138 2.3519450043642633 -2.392480793580811 2.3992902120763544 -2.424781729683452 C 2.452387641286176 -2.4610649729768297 2.473184134393356 -2.505312830651681 2.4492902912489365 -2.5699147028569644 C 2.4338035410627383 -2.611507689071325 2.446635419788445 -2.6300917892947626 2.489555841733051 -2.6469059752112054 C 2.4979629346912726 -2.6508882824019424 2.506812506226243 -2.653100675285685 2.5156620777612133 -2.656198025322924 C 2.543095749519621 -2.66637503258814 2.5603524140128133 -2.6862865685418233 2.571856857008275 -2.712392804569985 C 2.5877860857712216 -2.7486760478633636 2.57628164277576 -2.7805345053892565 2.5621223283198074 -2.8141628772221434 C 2.5284939564869204 -2.893809021036876 2.5422107923661246 -2.9190302999115416 2.6240693290645996 -2.945136535939703 C 2.6970782942281044 -2.9632781575863922 2.755485466358908 -3.0066410581077467 2.793096145382532 -3.072127887466527 C 2.8063705026849872 -3.095579252034198 2.8041581098012447 -3.1252253166763486 2.786016488154556 -3.145136852630032 C 2.68955615842338 -3.2566414539706576 2.6404410364042947 -3.3995620342604274 2.6324764220228216 -3.4252257917118407 C 2.6116799289156414 -3.5057568926800706 2.6107949717621444 -3.5893853436855396 2.634688814906564 -3.6769961018817447 C 2.652830436553253 -3.7442528455475195 2.67451188681393 -3.811067110636545 2.6970782942281044 -3.8774388971488216 C 2.7479633305541835 -4.030536484703807 2.7572553806659017 -4.185403986565787 2.7218570945260208 -4.34248388131151 C 2.7059278657630745 -4.4115105392842775 2.6820340226186548 -4.477439847219806 2.6470782150555223 -4.540714283694844 C 2.6430959078647853 -4.537174455080856 2.6417684721345402 -4.536289497927358 2.6413259935577917 -4.534962062197113 C 2.6395560792507973 -4.527882404969137 2.6377861649438032 -4.520360269164412 2.6369012077903062 -4.512838133359687 C 2.6028303573806704 -4.333191831199791 2.534246177984651 -4.169032279226092 2.4196442266067866 -4.024784263206076 C 2.3320334684105806 -3.914164619018948 2.2227412599536973 -3.828766253706485 2.098847258464114 -3.763279424347705 C 1.9873426571234882 -3.7044297736401526 1.8714132700153774 -3.6526597801605765 1.7568113186375125 -3.5986773937972574 C 1.6218553527292159 -3.5349604787454716 1.4829170796301825 -3.478323220921662 1.353270856642868 -3.402216905720918 C 1.1997307905111336 -3.3132787117944664 1.066544738909831 -3.201774110453841 0.9634472305274272 -3.055313701550083 C 0.9408808231132529 -3.023012765447441 0.9196418514293243 -2.988499436461057 0.89707544401515 -2.9553135432049187 C 0.9196418514293243 -3.0278800297916746 0.9683144948716608 -3.114163352257635 1.0143322668535064 -3.176995310155924 C 1.102827982203209 -3.2973494830315198 1.2103502763530978 -3.399119555683678 1.3298194920751967 -3.487172792456632 C 1.497076394086135 -3.610181836792719 1.6669881675575642 -3.7292085739380694 1.8346875481452507 -3.851332661120659 C 1.9559266781743436 -3.9393858978936134 2.0714135867057055 -4.0340763133177955 2.168758873590379 -4.1486782646956595 C 2.2674315962052973 -4.264607651803771 2.3373432113315626 -4.39558131052133 2.364334404513222 -4.546466505192574 C 2.371856540317947 -4.58938692713718 2.375838847508683 -4.631422391928289 2.377166283238929 -4.672572899565901 L 2.377166283238929 -4.688944606905595 C 2.377166283238929 -4.688944606905595 2.3745114117784376 -4.898679452284391 2.3745114117784376 -4.898679452284391 L 2.3174316753778794 -4.890714837902918 L 2.3174316753778794 -4.892484752209912 C 2.293095353656711 -4.888944923595924 2.2692015105122914 -4.884962616405187 2.24575014594462 -4.880980309214451 C 2.24575014594462 -4.880980309214451 2.227166045721183 -4.8783254377539595 2.227166045721183 -4.87788295917721 C 1.189996261822666 -4.6880596497521 0.4267207169314798 -3.77124403872918 0.4377826813501926 -2.70841049737925 C 0.4435349028479233 -2.1743388552437932 0.6435352195382515 -1.6694707991737392 1.0032703024347933 -1.272567515830322 L 1.0045977381650388 -1.2703551229465804 L 1.0059251738952844 -1.2703551229465804 C 1.0351287599606862 -1.23761170826719 1.0647748246028366 -1.2061957293180452 1.096190803551981 -1.1756647075223983 C 1.1705272044457313 -1.1030982209356424 1.2484034339534698 -1.0305317343488856 1.3342442778426813 -0.9694696907575908 C 1.420085121731893 -0.9084076471662961 1.5192003229235602 -0.8650447466449425 1.622297831305964 -0.8292039819283117 C 1.6811474820135162 -0.8088499673978804 1.740439611297817 -0.7911508243279401 1.8010591763123636 -0.7765490312952386 C 1.852386691215191 -0.7641596311462804 1.9045991632715153 -0.7535401453043171 1.957254113904589 -0.7469029666530886 C 2.3063697109591663 -0.7004427160944946 2.439555762560469 -0.8296464605050611 2.458582341360655 -0.8504429536122409 C 2.459024819937403 -0.8508854321889894 2.459467298514152 -0.851327910765737 2.4599097770909006 -0.8517703893424864 C 2.4603522556676487 -0.8526553464959834 2.4607947342443977 -0.8530978250727319 2.4607947342443977 -0.8530978250727319 C 2.3258387683361015 -0.8349562034260432 2.189555366697559 -0.8345137248492946 2.0612365794404894 -0.910177561473291 C 2.0953074298501253 -0.9150448258175246 2.1293782802597607 -0.9176996972780156 2.1634491306693966 -0.9194696115850096 C 2.2271660457211824 -0.9225669616222483 2.291325439349717 -0.9225669616222483 2.354157397248006 -0.9287616616967274 C 2.5293789136404174 -0.94601832618992 2.6829189797721518 -1.0119476341254483 2.7767244380428364 -1.1725673574851587 C 2.843981181708611 -1.2889392231700176 2.8293793886759095 -1.4358421106505244 2.747520851977435 -1.5181431259257492 Z" fill="#e39a9d" transform="matrix(1,0,0,1,0,0)" fill-rule="nonzero"></path></g></g><g><path d=" M 0.534 1.0050000000000001 L 0.15 0.08550000000000002 L 0.0465 0.031500000000000083 L 0.0465 0.007500000000000062 L 0.444 0.007500000000000062 L 0.444 0.031500000000000083 L 0.3135 0.08850000000000002 L 0.594 0.7635000000000001 L 0.6015 0.7635000000000001 L 0.879 0.08400000000000007 L 0.7545000000000001 0.031500000000000083 L 0.7545000000000001 0.007500000000000062 L 1.071 0.007500000000000062 L 1.071 0.031500000000000083 L 0.9855 0.07800000000000007 L 0.594 1.0050000000000001 L 0.534 1.0050000000000001 M 1.2089575195312503 0.9975 L 1.2089575195312503 0.9735 L 1.3304575195312502 0.9135000000000001 L 1.3304575195312502 0.09150000000000003 L 1.2089575195312503 0.031500000000000083 L 1.2089575195312503 0.007500000000000062 L 1.9619575195312502 0.007500000000000062 L 1.9619575195312502 0.26550000000000007 L 1.9379575195312504 0.26550000000000007 L 1.8404575195312503 0.09000000000000008 L 1.4879575195312502 0.09000000000000008 L 1.4879575195312502 0.4455 L 1.7369575195312503 0.4455 L 1.8134575195312501 0.3195 L 1.8374575195312501 0.3195 L 1.8374575195312501 0.651 L 1.8134575195312501 0.651 L 1.7369575195312503 0.528 L 1.4879575195312502 0.528 L 1.4879575195312502 0.915 L 1.8809575195312502 0.915 L 1.9799575195312502 0.7170000000000001 L 2.0039575195312502 0.7170000000000001 L 2.0039575195312502 0.9975 L 1.2089575195312503 0.9975 M 2.197452392578125 0.9975 L 2.197452392578125 0.9735 L 2.318952392578125 0.9135000000000001 L 2.318952392578125 0.09150000000000003 L 2.197452392578125 0.031500000000000083 L 2.197452392578125 0.007500000000000062 L 2.612952392578125 0.007500000000000062 L 2.612952392578125 0.031500000000000083 L 2.4764523925781248 0.09150000000000003 L 2.4764523925781248 0.915 L 2.831952392578125 0.915 L 2.938452392578125 0.657 L 2.962452392578125 0.657 L 2.962452392578125 0.9975 L 2.197452392578125 0.9975 M 3.629887939453125 1.0125 Q 3.514387939453125 1.0125 3.422887939453125 0.9705 Q 3.331387939453125 0.9285000000000001 3.279637939453125 0.8385 Q 3.227887939453125 0.7485 3.227887939453125 0.603 L 3.227887939453125 0.09150000000000003 L 3.106387939453125 0.031500000000000083 L 3.106387939453125 0.007500000000000062 L 3.506887939453125 0.007500000000000062 L 3.506887939453125 0.031500000000000083 L 3.3853879394531248 0.09150000000000003 L 3.3853879394531248 0.5865 Q 3.3853879394531248 0.7110000000000001 3.424387939453125 0.7837500000000001 Q 3.463387939453125 0.8565 3.529387939453125 0.888 Q 3.5953879394531247 0.9195000000000001 3.677887939453125 0.9195000000000001 Q 3.743887939453125 0.9195000000000001 3.800137939453125 0.89175 Q 3.856387939453125 0.8640000000000001 3.8901379394531252 0.8017500000000001 Q 3.9238879394531248 0.7395 3.9238879394531248 0.639 L 3.9238879394531248 0.08850000000000002 L 3.776887939453125 0.031500000000000083 L 3.776887939453125 0.007500000000000062 L 4.150387939453125 0.007500000000000062 L 4.150387939453125 0.031500000000000083 L 4.028887939453125 0.09000000000000008 L 4.028887939453125 0.603 Q 4.028887939453125 0.7485 3.977137939453125 0.8385 Q 3.925387939453125 0.9285000000000001 3.835387939453125 0.9705 Q 3.745387939453125 1.0125 3.629887939453125 1.0125 M 4.3243564453125 0.9975 L 4.3243564453125 0.9735 L 4.4458564453125 0.9135000000000001 L 4.4458564453125 0.09450000000000003 L 4.3258564453125 0.031500000000000083 L 4.3258564453125 0.007500000000000062 L 4.5613564453125 0.007500000000000062 L 5.1358564453125 0.714 L 5.1358564453125 0.09000000000000008 L 4.9813564453125 0.031500000000000083 L 4.9813564453125 0.007500000000000062 L 5.3608564453125 0.007500000000000062 L 5.3608564453125 0.031500000000000083 L 5.2408564453125 0.09000000000000008 L 5.2408564453125 1.0050000000000001 L 5.1763564453125 1.0050000000000001 L 4.5508564453125 0.237 L 4.5508564453125 0.915 L 4.7053564453125 0.9735 L 4.7053564453125 0.9975 L 4.3243564453125 0.9975 M 5.446336669921875 0.9975 L 5.446336669921875 0.9735 L 5.540836669921875 0.924 L 5.926336669921875 0 L 6.008836669921875 0 L 6.389836669921875 0.9195000000000001 L 6.490336669921875 0.9735 L 6.490336669921875 0.9975 L 6.094336669921875 0.9975 L 6.094336669921875 0.9735 L 6.226336669921875 0.921 L 6.115336669921875 0.651 L 5.753836669921875 0.651 L 5.644336669921875 0.9225000000000001 L 5.770336669921875 0.9735 L 5.770336669921875 0.9975 L 5.446336669921875 0.9975 M 5.7883366699218755 0.5685 L 6.082336669921875 0.5685 L 5.935336669921875 0.20700000000000007 L 5.7883366699218755 0.5685" fill="#aba0a4" fill-rule="nonzero"></path></g><g></g></g><defs><clipPath id="SvgjsClipPath104659"><path d=" M 0.4377826813501926 -6.082752123663416 h 5.65974347519024 v 5.532752123663416 h -5.65974347519024 Z"></path></clipPath><clipPath id="SvgjsClipPath10465480458a68-efe1-4be4-a4ca-0693180bab8f"><path d=" M 0.4377826813501926 -6.082752123663416 L 6.097526156540432 -6.082752123663416 L 6.097526156540432 -0.5499999999999998 L 0.4377826813501926 -0.5499999999999998 Z"></path></clipPath></defs></svg>